<mxfile host="Electron" modified="2023-05-10T10:46:36.632Z" agent="Mozilla/5.0 (Windows NT 10.0; Win64; x64) AppleWebKit/537.36 (KHTML, like Gecko) draw.io/21.2.8 Chrome/112.0.5615.165 Electron/24.2.0 Safari/537.36" etag="NJshaKSEVO10oIw8YqCh" version="21.2.8" type="device">
  <diagram id="K7lirxNVDsg6XKJkKM0g" name="Страница 1">
    <mxGraphModel dx="915" dy="690" grid="1" gridSize="10" guides="1" tooltips="1" connect="1" arrows="1" fold="1" page="1" pageScale="1" pageWidth="827" pageHeight="1169" math="0" shadow="0">
      <root>
        <mxCell id="0" />
        <mxCell id="1" parent="0" />
        <mxCell id="OHNksXauE9havSNf5izH-1" value="Linux server with Docker and Docker Compose" style="rounded=0;whiteSpace=wrap;html=1;labelPosition=center;verticalLabelPosition=bottom;align=center;verticalAlign=top;fontSize=16;" parent="1" vertex="1">
          <mxGeometry x="170" y="10" width="520" height="580" as="geometry" />
        </mxCell>
        <mxCell id="HauU1o4Qbi5hm5UDvGz6-1" value="kdc-network (docker network)" style="rounded=0;whiteSpace=wrap;html=1;fontSize=16;labelPosition=center;verticalLabelPosition=bottom;align=center;verticalAlign=top;" vertex="1" parent="1">
          <mxGeometry x="205" y="20" width="465" height="540" as="geometry" />
        </mxCell>
        <mxCell id="-ltacMk_oOF2rvO0Wb88-9" value="container:kdc&lt;br&gt;image:chistousov/kerberos5:1.0.0" style="rounded=0;whiteSpace=wrap;html=1;labelPosition=center;verticalLabelPosition=middle;align=center;verticalAlign=middle;fontSize=16;" parent="1" vertex="1">
          <mxGeometry x="400" y="30" width="250" height="80" as="geometry" />
        </mxCell>
        <mxCell id="Ru-kCM0E-uPwKcuMAgpD-1" value="" style="shape=image;verticalLabelPosition=bottom;labelBackgroundColor=default;verticalAlign=top;aspect=fixed;imageAspect=0;image=data:image/jpeg,/9j/2wCEAAIBAQEBAQIBAQECAgICAgQDAgICAgUEBAMEBgUGBgYFBgYGBwkIBgcJBwYGCAsICQoKCgoKBggLDAsKDAkKCgoBAgICAgICBQMDBQoHBgcKCgoKCgoKCgoKCgoKCgoKCgoKCgoKCgoKCgoKCgoKCgoKCgoKCgoKCgoKCgoKCgoKCv/AABEIAEMAQAMBIgACEQEDEQH/xAGiAAABBQEBAQEBAQAAAAAAAAAAAQIDBAUGBwgJCgsQAAIBAwMCBAMFBQQEAAABfQECAwAEEQUSITFBBhNRYQcicRQygZGhCCNCscEVUtHwJDNicoIJChYXGBkaJSYnKCkqNDU2Nzg5OkNERUZHSElKU1RVVldYWVpjZGVmZ2hpanN0dXZ3eHl6g4SFhoeIiYqSk5SVlpeYmZqio6Slpqeoqaqys7S1tre4ubrCw8TFxsfIycrS09TV1tfY2drh4uPk5ebn6Onq8fLz9PX29/j5+gEAAwEBAQEBAQEBAQAAAAAAAAECAwQFBgcICQoLEQACAQIEBAMEBwUEBAABAncAAQIDEQQFITEGEkFRB2FxEyIygQgUQpGhscEJIzNS8BVictEKFiQ04SXxFxgZGiYnKCkqNTY3ODk6Q0RFRkdISUpTVFVWV1hZWmNkZWZnaGlqc3R1dnd4eXqCg4SFhoeIiYqSk5SVlpeYmZqio6Slpqeoqaqys7S1tre4ubrCw8TFxsfIycrS09TV1tfY2dri4+Tl5ufo6ery8/T19vf4+fr/2gAMAwEAAhEDEQA/AP38ooJwM15L8UvjEbuO90XQbhorSBT9ovIpgryAcNt5GE5xnILHHIBG7zc0zXC5Th/a1n3surf9bvodGGw1TFVOWPzO58VfE/wr4SkFteXElxcH/l3tE3sOWHJyFXlTwTng8cVzF1+0FGNTNtp3hgS25UGKWS92O5wMjaEIyCccMcdTgHNYfg34J654gaPU9bnOm2W0GODyMzSHdkPtfIiGPXJOTlQAoqT46aD8LvgB8A/GHxb1XTprlPDXh291SWS81GT940MTOob5lXG5V4xgcYHAr5+nX4rzO1Sko0YPa+7XzUnr3svLTfvlDLMP7sm5vy/4dfmxfhf+2N8PPi1okPjHwgFvdCup5orbUbSV92+KV4nSSKWON43WRGQoRkMpGDjNejeFfHvhnxjGf7F1ANKq7pLeRdsij1x3HI+YZHPWvz//AGbv2qv2BfhX8avHv7Inxa/az8BaJ4h8PjS/EUesr44s4bO/uZ7KCz1BGeSUxtdxajYztJE22VRPGxAyWr6VuLFLDQ4fHXhPxnpus+F7lY2sfEWgXolg2BlwWdHcDkcOrFMhTuTCgPEY/iHKJurXiqlHurXS87JWS7uNu9hU6GAxUeWD5Z/16/dc+hKK4X4W/E+LWY7fw1r98ZNQaMmKZkCiUDPyn1fAJzgA4OMkNXdV9Lgcdh8xw6rUXdP70+z8zzq1GdCo4TOQ+M/iqfw34V8myvFhnvJPL3+aFZIwCXYcgjsu4fd3g5HWuR+C3g//AISjVpvF+ryfaLK0mAs45DvWW5HzNLnowXKY45fcTygo/aAu/K8SwS/aHdbXTw7W8cTEgb2LHkbTnC9CTxjGWU18r/8ABXD/AIK9/D//AII9fsb+G59N8OSav8QvG2l3cXg7R4wvl2lz9nMr6hdByMwR3E0KsmQzmXAIwSPlOX+1OKZKrrCirpb6rbT1bffRJnqN/VcsXLvN7+X9W+8+j9a+OSaB/wAFIdB/Z61Lxxtj8R/BrUNa0vQNxwZ7PVLaOafHQs0d0qjPaJ8Z5x81f8HA/wC1n8PfA3wG8N/sa3Wra42u/GXxXYaRPb+F7yOG7s9KW5ha7vHZ45AYot0ReLaPNUshdFLuv87niP8A4LZft0Xv7ePhP/goLoHxsvdb+JGh+FYtI8/XNBhWz2yRSJc2SWcchjNuXmcrtEZLEPtVgDX3L+01+3x4E8E/sX/FXxh+3RNdeL/jv8SNLSx+FHiEaKTatPYXM1rqM9vcQMFs1h1CW7C2/wAh8u0t2O7fsH0uaYytg8H7TDw9pNtKMdVfXXpfRXeqS01aV2uXLqGGr4m2JbjBJ3aauui303auu17an5lfGv8A4W5+25+2LD8K/hp8PH1HxXrHiO606x0q1s7VLm+1O6v7i7vHlliREZftdxclXf8A1VukaM2Iix+y/wBiT/gqZ/wUv/4JEWVz+yn8If2etI8e+HtAd77xDaix1PVNNv7S+jt3injkh2rCpkm+WVQFf7T5bq+I9vkP7E/xf/ZX8R/t/eD/ABZox1LTb34m+PI38caj4lEVpZeFNLupGOqWVtNE7NJHcq0sL3RWNorOWRAm92kT+pHWPAn7e+s6L4bsvhF8cfg54V0m21C3luxY/Dq9v4p9LEePssAOoRogOQVkXA2hQFHU9UqCgorkulf73u9Wr6PXd6+Zxqd29df6t+R8PfsV/wDBX7xt8avGHw/8HftA/sDfE/4N618Qdc1LT/Bl/qNibzSLq+07cbmAzyeVPA0JhmyssJ4jIJIWR6/U3wX4iHirwxZ66Ygjzxfvox0SRSVcfgwNeOfEj4R+JrPTdM+Ivxp+JNv4m1nRtQaLSZbXRP7Os7JbhPId0hWSVvOYHYZjISI5JFUKrsG7z4BXupXfhe5S8meWCO7xayNnG3y1yBkkAZycDgbu3SvnMI8Pl3ELwdCPLGcbtXur62duismu1z0a3PiMAqs3dp2/4HmfHH/Bfj4AftcfGH9nEa9+wz8V/Enh74jeGLhNa0/StE1U2ieIrWGOaK406T5tk5dJg6RSKUd41j6y8eRfsQ/8Fnf+CMXw0/4J3eBvgH+0r8Xzol/4X8LWWg+MvAvxU8Lajf6kly+FuFkint5WubYys53DciR7VYJgKP0w+M3hga54WbU7a1aS607MsOz72zIL4HcgKGHfKjr0PjurTeBbn4V+L/CHxD8C2HiS11Lw7f8A2Kz1fTkvhfEQOWs2EitvEpjUqh3ZYkZOVFaTzB4DOlha2kJXcH0vK10135lZO+nNa2uiVCNbBOpBaq1+/u3tbys9dOn3/i3+2t/wSz/4Is+AvFC/t7fs4fG3w/rvwkuPA2ra94m+F2n+Mwmp2ouLO5ksLrTI/wDj4tnF3JZwrbToFi+8zfKUP5bfAf4Var/wUR/ay1s+MfFkHha0vYNZ8U+IJtK0mW+kt7eJZLuaCxskbzLqd2bZHEpyzOXY4DNW3rfxs134U/8ABOGH4A33hXwpDqXxR8W/20uoQeGLaLWbTw/ZyMEt5LxUEr21zqAaRYXY7P7NDDCyDPT/APBNDSvBnwI8CeOP+Chvjvxh8TtBuPh/c2ejeAtZ+F+iW13Lp/iG9WRo5757t1t47QwRzRGNwTMZiFx5ZzxYrBZ/gMqx1WGJ58TVcvY3Xuw35IqLUlpJtuVpO1k1PkSd03ga+KpQcXGml7z0b7t6WvZWXS7Tel9Oj+A3/BCH/gtZ4uvLub4VfsT+LdNi1bQ7uCa58RNYadHNaOxikiLXsqhZCV4UYk4DrgYav6b/APgiuP2nNJ/4Ju/DfwB+2B8JZ/BXjvwfYT+G9Q0Ga1MXl21hcPa2jg73WQPbRQt5iuyyZ3g4YV8df8E+P28f+C//AI2+CXhr9t/4vfsneBfih8JfF2iRTWHgrwBPFpni+3gVGjTUoIbhlt5UmaMStA0rORMpi2qNlYL+N/8AgsV/wUa/4Ka+Df2nv2Vf2dPGn7N3w88I+Gz4e8S698b7RQJ4Be+feeVo7SlJpmX90kqqMgHM0eAR9JgpYlUKMsTFKrJLnaVkny3b+KWl1Ze9Jq+/U4asIc0+SV0tvPXbVLvfZH6n/tC3/keErTT44vMludSjIRWAYKgZywzxxhevHPPFO+ANncReGbu+mmVluL0lBuBYYRQdxHfJPXtjoMVw3xB8XL8QfE8V5plzLLp8S/ZrBEiDCclxmUKcZLOihc9VCEY35HsPg3w1D4R8O2+hQyeYYlJkk243uxLMcdhknHJ4xXzeXTWacS1cXT1pwXKn36fNP3mn2sehiF9Wy6NKXxN3f9fcahGRivK/iZ8MdVh1WbX9MdW05oi9wve2VEJ2hRjKcAgKCd2Bj+IeqUYr6PM8sw+aYf2VXpqn2f6ruv8Ahzz8PiKmGnzRPxp/4KT/APBvj+yj+3drM/xS8Ja7ffDvx9MmJ9a0SyF3Y3/yYiS4sTKqrsC48y3MRIDZSVjuPwHdf8G7v/BUXwv4c0L9ju88WfDrU/hVq/xMtte8Q+IPD2siO6sx5Ys3upo7qOKaVIbcyusKCQBnYqcsa/pr8Q/CXwlrcUptbU2E8rhzPZ4X5gDztOV5JycAEkA5yBXKXX7PN/CippfieD5lKTNJaMrbQcrtw55BLH0GRgAAg/MyocU4KKp8sa8Y2actWmtvtRba3u726bHpRqZdVk5JuDd07ee/R+mlrkvgfxl8Dvgv8MtH+GXw4RjovhXR7bStK07TbRitvbW8KxxRhmCoNqIowWrnfGPxI8UeP54dJt7L7LYSkhrCI75LgkYUM+0h8N/yzXgtj/WAEHobX9nmYyo974oRV5eQW9n8wdiSxVmbgHPpyc5BGAO00D4e+EvDV2dR0zSU+0kY+0Sku6+u3P3c+i4/KqnheKM3j7PEtUoaXS6r5OT8mm0n1JVXLcJ71O8pefT8vyZzHwn+Ff8AYzf8JJ4k09FumkMlrAesROcu4Hy7zn0yOSTuY49B6dKKK+oy/AYfLcMqNFaLr1b7vzPNr16mIqc8wooortMQooooAKKKKACiiigD/9k=;" parent="1" vertex="1">
          <mxGeometry x="586" y="120" width="64" height="67" as="geometry" />
        </mxCell>
        <mxCell id="Ru-kCM0E-uPwKcuMAgpD-2" value="" style="shape=image;verticalLabelPosition=bottom;labelBackgroundColor=default;verticalAlign=top;aspect=fixed;imageAspect=0;image=data:image/gif,R0lGODlhMQF4APcAAB8aFyIdGigoHC4zHjA3HzY4JjMsJ0M9O0I/Kj1MJTtGJz1OJ0RILERXKUZIN0tWOFlXOlVKNmJWPWNPPkpkK01oLVFuL1VoNlR0MVl8M1l2NU5lNmNoPGV3PEpGRlJNTF5bW1tXWVpaTG1XRGdaRWBcXFhnRVxxSWtoRXFsSGp1RnFyRHJ8RHN7Smt3VnZ4WHRmWF1+fmlmaHVzdnh1eHZ3aJFVcIB9ZF2GNWSJOWuWO2uXO2iVOmuUPGyaO22aPG6dPWuaO2WUOXGcP2+iPW+qPXCiPnKlP3OqPnOERHSLRHuITHeYRXuGWnWYWGuNUHOnQHOlQXijRHSqQHauQXOoQHqsRHShT3exQXazQHiyQni1Qnu0RHu8Q3u1SXmmV3iGZnmXZHunZHzCQ37ERH3CRH/ER4eVVISSVZamW4K6V4qqWISJaoSWZYmWdYeoa4a6aI23c5Owb6e3ZaKtfILFTIXHV4vKZY7LbIrDapDLcpbPf5XNfZPMepHEeI7HcrPGbLrNcbzQccbbeMzie6BviKNzi6Z5kKh9k398g3eSlHyWmIWDhoCZnJaUmJORkK2Dma6In5mliJ2olaOqlaq1m6GrjYifo56corSOoriWqrudsamSpImgo5GmqpOoq5qtsqenrLO6pq6stL+itKOzuLe3u661pMOqvcCmub7Is7rDr9brgsXMu8fQveLsvay7wbu8x8q2x9G+zMu5y7bCyLvGzL/K0MXEy8jIy83TycXJ1NXJ2MrS2dLU3NjY2dPQzNzh2Obr2drU49Xa49vd5tzc7t3d7t7e7t/f79XT4uLb5uLe6uDg7+Hj7eTj7Onq6O3x6+Hh8N/f8OLi8OLi8ePj8eTk8eTk8uXl8ubm8ubm8+fn8+jo8+jo9Onp9Onp9erq9Orq9evr9ezs9ezs9u3t9u7u9u/v9/Dw9/P08vHx+O/v+PLy+PPz+fT0+fX1+vb2+vf3+/j4+/n5/Pj4/Pr6/Pv7/fz8/f7+/v////39/vv7+vb2+fDz7t7f6iwAAAAAMQF4AAAI/gD1CRxIsKDBgwj1hfAgI6HDhxAjSpxIsaLFixgzatzIsSPBZSIKFKzhAMYEBx5TqlzJsqXLlzA1HiABQyRBBDAOxNzJs6fPn0A9AkNA08AqdQMNCFgWtKnTp1CjalTHJsWIEQgOTGiy50kTXQZqSB1LtqzZnsFQXB3xok0bAS72yN3zoMCos3jz6t0Lkc3aJnHmFjAwN4yACCf4Kl7MOGolJ1ZHcJ27x0CBAnKdhDnRRFLjz6BDr1Qlxs/awJRPiHkj980FNjcy8BNNu7bth5bkxlmLB8+d33n2sHEj18QDEo+oPLjNvDltVSnk4rm6gox1HToCeIAhQrOJAtpF/uxxAs25+fN5/an1o6cOi6tlyBzZEeQBpgABPjjyEsaDKRF3dIXegARCBcFVXlhHBgvVkdFFFmQ88QguBkTzgRp7uCCCDwE64U+BIIYYEzRrSaEgGfGRUUeCWQiAiSkziIDHXDPuAccpIuaoo0cvlHiignPd0UUYLoSBIWVyweHZjkw2SdGBV3Fx4hR27OGbkAEiuccJc4lRiZNghnmQMFAmUUYSCvoQHBHY+YBEjXM9EIYTAYjxhCpi5pknlFZcZeIYOkyBB3aE/pClXA7gF0AeCujpqJMbFKDWe2uhoAMZWBCqAw8DAFGHHr3RuegASz5qaoiVfLFABywokcQK/wwqMQYRXWiqQwMLAIEDD1HwgIEAOERz6rAgQoAHHARQYV0XXfyIhKYNNKCDAAsUoAAFQCwQTD7cduvtt+CGK+645JZr7rnopqvuuuy26+678I7b1whf7GECBmP8qCAVthIB4RRj5CuECfEWbPDBCCes8MIMuwsRCSOwoMceHRSg74lEEIEEFvkqKAQFJuwj8sgkl2zyySinrPLKLLfs8sswxyzzzDTXbPPK+TwkwVVHYtBAsxcH3PEYXVRwRAGq3Kz00kw37fTTUEdtc84OrZXEHXjwkUMCOHR8ohZgbwE2Fkazgc/ZaKet9tpst+3223DHLffcdNdt991456333v5y7+MQPxNcxYKKM36RANdZYOEgFlA07jgUWFjgCt+UV2755ZhnrvnmfPvtEJRMkMEFF14sYecCPhAhNhFGHOH6EURgwUQ099Ru++2456777rz37vvvwAcv/PDEF2/88cgnHzw+D0GpBBlrjWCFgzp0gQUQO+ygKRBhVKL89+CHL/745JdvPvjMO/TAWpSOELp1WWjh+BFGYE+EKPbkr//+/Pfv//8ADKAAB0jAAhrwgAhMoAIXyMAGIjB9CSnAADrwPBYM7kTWe1zjpmABB3rwgyAMoQhHSMISihCCB4mGGFTVALFJ6URboIIGoUAFHAiDHjjMoQ53yMMe+vCHQP4MohCHSMQiGvGISEyiEpfIxCPewyGq8MMe+qCBASwgA0LIArO6sIUqzO8IkHNDE8dIxjKa8YxoTKMaz/jEhEhiBFLcwx+csIEFEAA7RJChEX6gKRy4QAWARME8BknIQhrykIhMpCIXychGOvKRkIykJCdJyUpa8pKPtIdDejSCO4DKSk6AgxeO4IMqEAoIP/jBFDAwCFa4khUuwKQsZ0nLWtrylrjMJSY1mZAbXAVNUmACE0bAhSlsAXY+aJ3jfkCEDjShEpYwgTymSc1qWvOa2MymNrfJzW5685vgDKc4x0nOcprznN+kh0MsIbhhUocMgVBBDozQgxlqQQDRQP+nPvfJz376858ADWg/1ZmQaOxsBErwkQIIwQpBLKED9mRAPCZK0Ypa9KIYzahGN8rRjnr0oyANqUhHStKSmvSkIq3HQyB2FTI0yDodWEIaljDDxmlhAyjNqU53ytOe+vSnQN2pSh+CAAmgIApeSKoWeGABHgxhCDWlIQbcAY9ovOAF8MiqVrfK1a569atgDatYx0rWspr1rGhNq1rXyta2inWoCWkFHDRQLQIMYAAEWMAGdgDGLxqhfkbAgS5esASGnsGtiE2sYhfL2MY69rFrhStCRPECufwhD5j1gx2sIzYoAMFW2BECGlgxiDO04R2oTa1qV8va1rr2tbCNrWz+Z0vb2tr2trjNrW53y9vYyuMhb/xCb3yz2feRYQt8/IEPgMDc5p5hDpLorXSnS93qWve62M1ub3/rkFP80jpl6BMKHESGMeTAdTOcghBE4Y72uve98I2vfOdL3/ra9774za9+98vf/vr3vwAOcH7j8ZBgRK8La1lBGgDBgjOkgQFR1QIRBEzhClv4whjOsIY3TGEC64x9a1GCHVo5CJpGFQpTuF87VnyKFbv4xTCOsYxnTOMa2/jGOM6xjnfM4x77+MdADjKN4QERdlJHcNaZggY0UM/Hua5+qDTCBoDRhCUAAhCUELKWt8zlLnv5y2AO846J/LAQJ6ELXvBVAvD+OIXPghY7GeAAQ1kBgXXY+c54zrOe98znPvv5z4AOtKAHTehCG/rQiE60ovdMZohcAAEMSIACCpDXC1yhDFw0wg584IMfNJe5RAjCGlogimCMghElAICqVV0CGoxi0bCOtaxnTeta2/rWjJZIG77wBSeIAQ592MMdYDiFE2MhA8WgwaqXzWwA0OAZ6Yi2tKdN7Wpb+9rYzra2t83tbk/bBuAGt7etHe5ym9sGiIBEJlAxjHFzmxfn5oW703HueqtbFsuYt7TfIRE24EAPAPeNGZ7XsQ1A+MQUaLbCl80IfTv84RCPuLTNDfF6W7zcmZiFxKOdiXNnYt4XtzgiNE7/7RKY3OS/KEG0c6HydPA7Im9kwvSsI4URSCENSTgDKwKRg5pyauFAV/UHfIGOohv96EhPutKXzvSmO/3pUI86OswtdaWH/Oo2QEXVl27xrU8d6+eGRDeSXoKis9wR6JBB2dHhDolQgn1kkIJVVMAEQgyCBRcotpN5oHAahGISlSi6L0ah7GYT3euIT7ziF390qise7CFHxDIUPwuLz2LrkK/35I++9lw4QgaeX3vbIwK4EK8ldB3IQRfo1zjmYmcAzCaAL2IKCEG84hy4PwczZMDsA+T+98APvvCHT/ziG//4yE9+7s2tfOEzX/jD4AUqIGH55v+e+va2/vOBvwxe/mii3sAvAe5z8QhTfOAc4j9HOybilyNfBWhkeFaxscfpBDAbA0BQAmnnMAcHBH8UzJZ+1jeABFiABuh85XaA21d8s1AI5zYLA6gNIacNzbeAwvd9GPd76Ud+52AK6Id76ycR/nBQ7sMCTEA0QmBHOkAEencEOMBsGQAFWkABaSAJz1AM5pCDOpiDALhsprCDQBiEQjiERFiERniESJiEO2huSiiETJiEqHBuw9CE5iAL5aYJGAhustCET1iEUVhuy6CDIJCD5CeGObgOFLEPE8ABKBAEOFABdrQATqAG+aIFMgQFsLdqC+A4WMADJ2CEvLdqB0CFhFiIhniIQ9iF/4WoiEe4DOdGhYhQbsMwDOWGCFxYbkjogOFGCkmIhhQRDAygAArQABrwBH8gbCdyAVXwgsumQVhAAbpQDrI4i7RYDsxmCrWYi7qICzTwAasGApigi8JYi77wCCCwbAcAjP8wjMxIi5gQiKqmjM0oi+Y2jcxYjdY4i454hdlYDtsIboUgi5oIbsvQjdjYjJUXbpCQjZ44EZbwBX7AB0FiHWfAASwwB4HwAAuwbBWgQVNwBJNADgI5kARJDo+wbDJQkATJbAKJC8e4cKagkBI5kA4ZdM72DxM5kAwpkIwQdJiQkQNpbiA5kuQgkiRZkJRYbs9wkuRACuVGCgLpkpvIkv8lWW4n+QwmSZLtKBG5YSV6YAdmsCyFRQiAcAFUwGxAoEFVcARuMA5O+ZRQOQ7/wGxRCZVU2ZEWOQpVuZXjUHgWqWq+wJVOSZWm8JXOJpZOaW5ouZbjoJZsWZVZaAOa8JbjMI42sAxO+Y02UAh02ZblRpduyZbpUBGiUAF1EJT6kgMXoHpCsGwEUFNYYAJs6YurhgtcyWwP+ZWWuZaUaZZgKZbM5pVfaQpoGZh9CZWm2Zc4+ZdsmZLgCJV2OQyAyZpsmZpiOZgUoQsNcDE/0gUWsGwUUFM19AziUJzGeZzigJWq9gjIaZwLdwCYUAzF6QuiCQAH0JzI2ZmqRgOmcJz/plCd14md4gB03GmcvNh74lmc5pae7Gmc69me4nkI5cYL8BmXqHCcXwhumgCf6llu/CkO7wmf7FAR6sAAvAlD+7hqMThDVUAFbBAOEBqhEhoOoYCQExqhChcKF0qhzKahGxoOB7lqQ/ehvsBsj/ChffehFeqDHxoO5taiMBqhLxqjH5qfNrAJNGpuzyChqxluNAqhMxqj8KaOPxoO6GARDrAFB7osCrBsPQeZFPANUjqlVPoNuLBsIFClU8psH1AMWjqlISp0X/oNxbBsHzCmU1qiyzamvYcLaPoNmQkAjICm5vamdvoNdXqnXzqk4AYJdsqnNnAIWiqf4cYLepqn/3Yal5ugp99wDhYBBjiwpOXFbCf2j5Ngp8zGpmuKqcvmpVoqmr5wp6IZCl+aqXaKCVhKp+XGqGOKqKwqpT26l3baceEmC1pqheGWCYe6qnbqmuA2DIzqqBURDAsgqWRAqSemBQ/gDczarM7qDcz2rM0ardL6rNAIAJhQrcs2A9UqrWW5atwqrdTarcx6pctGruZGrurarOm6ruhabutqbswgrczQrvEKr+tKqH3qrs1qDhehAF7Dm8gaVVSQAbrQDQibsArLbAq7sMvWsBDbDagKrhC7oqpmChEbsViqsQ+bsQlbph0bsebmsSSbsCNbsh57shlLC+UmdhGrrzZAC/8oq7IRywswawPDgLIJ66+PKgSSOrA11aAvwA1EW7RGy2xGe7TLlrRMyw3mGo1Mq5wA0LRUi7RMa7VUW7RYy7TmlrVeW7Rd+7VZG7ZUi33gRgtUy7LqKLZka7S8IAtmG25oK7ZFy7MVIQwJ8LOteGI0RAFeu7VKu2piC7KqdgBMG6ee2WxNC7hVu7RU27Z0m7SQG7lEO7lFW6/l5rXy+rWZZ25zS7l2WxEMAH8XA7Q1NQVBMAnbsLqsy7rM1rqt+7qwO7vbILuxm7hAR7u2S7uuu2y8uw3m9rvCy7rBO7y8i7ngdgi/a6OZILy0Cm6oMLydG26zYLyzWw4YsQoUsKT/9rdqT2psJqAN4ju+4vu0AAAC5Eu+zJa+7Cu+65u+uAt07fu+7au+y1a/Elhu+Lu/42tu/Iu/gAoJ+AuztLC/apu8/Du9qfC/9UsOGaEAS9oAy4YDfItiRDAJ2ZDBGpwN36pqMrDBG8xsIDzCGSzCIBy/C0fCJkzCIbxsLJwN5vbCMqzBMTzDLJwK5ZYKLOyr04uzMox1hQAJmzALNizD45ARkoABB4oBwFnBNGQBJJwIy/YILLzCMmzFJezCRVzEWFzFWkzCNbzFIxzGYpzBMDsMLLwJPVxum/DD5VbGcHzEGZGkvMl3q/aYFZxiboANfNzH2hkLfRzI2MBsglzI/3xMyIKMyIa8yIw8yMvWyH2syIVsbpAMyZRcyYX8D+VWCIxslz3MyYx8yZg8yoEsDhoBqQeKlE6MBS5wDa7sysTAbK88y64sy7R8y7GwbCFwyyGwbLFwy8AczLRsy8Jcy8smzOZWzMp8Dcm8zLccl6kQzIC6xjbAC8hcbs6czbdsyhrxABByMRK8av1YwVpgAtZwzuccpgAgA+jczufMbO4cz9ZgsQAwA/F8rZggz/q8z++8bPyMzvCsz+b2z/880ATtztO8z4p60NagxuGmCfts0Aw90efMzRlBCRZQx6brZEfAXObczre4zwHNzzOwbKEQzxOraiFA0fw80i3tz/8CXW4s7c4SPdHmlgoRLYkMzcM5HW4zPdEWnREPUAS8SQDLtoeN09HKZSsmcAqTcArVcK0HUA1UXdVWzWxWndVVzWzKoNXKwGyxoNViPdZXvWxkXdarRtbmdtZsXQ1r3dZVrQwwewhknY7gCNdVbZezMNZvjdd+TdXgwBGusJsXY8cK2jiEwmmpxFwVUHuAwADMNgrUMNmUXdnMVtmYPdmOoMuZPdm9LKKdHdqiTQ2XPdqTXdqdbW6mbdqqvdqTbaPgpgyiHQls7NqU7dDgFgmh3dq23duT/Q0cQawH2r2rhgHKBQTK5DgNugEzxWwyIA3QHd3SLQ3MNt3T/dW+bN3/0J3L26rd2r0LH+Dd1e3d0j3e2m1u5J3e0Y3e6i0NsuDJ1Zze5qYM7S3dysDe1o3f9b3f0e0NHEEiUtAsZcAFSvBCx8psuRJVU1AEBtB77d2h3g3eupze1woAIUDf5B0LJQ0A4r1s9W3e+V1u/H3eIq7dvMALqUDb9cYL6Y2r4Dji0G2XskDi4QbjI+7fHBE90WMFNTcBCtcAGcADjsMDGRDOzLYLxpDkSr7kSd5sB+AIsaDkuyDFR87kVq6dqjYDmIDkSb4Lo5AIB7BsVt7kYj7mTM5sZm4M1BxuS77mycsLaZ7kkfjQcW7mcYkIY25udb7ncT4NHcFSOr4CK3AV/x3QpCj8AVxe5yiMrXuuDFjumWaO5nsu6Xnu5m2+5qiw5zwM53y+5NM8DFau550+6kru5xzxRjouOFfBBGmAAPGbCMcQ67I+67SOwqFA67g+6xVulrl+DMzW67W+bMDu5jYw62scCbIA7LRuo4eg7MoOs6iA6+bm7NSu7KbOESQYPZRiBXJGCCpglggQC8gw7uRe7uaODB0a5gsXArtw7u5e7rHw2RYpA6Hw7ui+bPZe7sxm78Re7mB3CIgQCaRAC/nu7tBe8PbO7Odubgjf8O/eDB4RDak+Al3QKtaxARfQADlQ5Ia+agqwABbgA6eQDCRf8iZ/8iTPbCQ/CjMg7/8HMAOxgPIyP/PK8Hnybp0hkAijMPM83/M+//NAH/RCP/REX/RGf/TSkBIFalQocGbWwyzygx1TIEN89GY+YArNkPVav/Vcn/XM1vVgH/ZiP/ZkX/Zmf/Zon/Zqv/Zs3/ZuP/bUkBJskAEVoAAEcPd4bytGwC86oFyL3VxTAAYwDuI2XviGf/iIn/iKv/iMr/jVkBJPwAd5AAeUDwdqQPl/4Ad3oAaJQwXI3VeuSAEtwAIqAAaujdq+nfqqv/qs3/qu//qwH/uqbw08ogJYM1x3YAd2UAc/Ij98WwVIoHOu9AIE7dI/ffzIn/zKv/zM3/zOP9HY4BE7gwIBniIXswX+ese3yioKdIAGzkzM2hz+4j/+5F/+5n/+6J/+6v/KQa0RgRM9L9X7TiyDJlDGXQzH+J//MZD/MwwKGwwQoLINJFjQ4EGECRUuZNjQ4UOICsfpo1jR4kWMFyeM4NhxhBUyIcmUIbNlChSUKI8cMQLkx8sdorTNpFnTpjYAOXPe5NnT50+gPmPcHEqzaFCatmwlXYrUqc1aimIoqvW051GjMbR66lVTkaKaWmM0ImbVLE9yGdWupSjBY0cuZKRIYTFCSRcqKIno4Nu37wlugQUPJhxYZ87CiRUvZtx4cYzCkAVLdiwY1ODLlTUT3kWWm69GuzYnpjw5sLOoxAITa+T+ObDkqKNlJzbH1rZFXW/ejkgSsuOKOReipCTyEggQI0aI8GjVzflz6NGdHwYg3fp17Nm1Y48BS6utbmJjhBcbvtRUYs/HPycGi7378M5jOItff759+fTXQw/9vLP88xRJz7lLpvIlPO9iAK8+6PbrxhZPnCulllpKUe9C9gq8ZMDxQBmvwEYc3A662m6z7YY99tDArY6ssOK3Mh5gZY40IEjpRiiowOGXb3r08UcggxRySCKLNPLIH2O45RtfYujRSR+h/EbJb2ppJMofQcnSx0ucuUURWL65pMcuvwxzTDG9BFPMIKV88sklrezRk12+KUaRKZds8k0g3ZyyR0X/nHEGTz5hQXPOWqr05MlEv/EkTGf8RLLHc0xk64YR2tgjDwoikAAFkEZgYQUpugiJBUAEASQHHFGiQghdwpF1VlprtfVWXHPVdVdeaY1h1l/DCVbWYYvFFRRakZUVFtB86cTZZZt9tpNoG3EW2lqHJXZbbsX71VhhbdU23F4akbWRXojVilpfgeU23Hd7pRWd26ARhRJV1KkoH3324UiJPvbo4woNCFggiCjiEmkLKnrooNWUqqDCjXEqtvhijDPWeGOOO/b444tjsFjkcUiu2GSUNYbFGYtXtriXqMYpBRZYKoZZEZlptjnmmWvGGN2XGzl55KFDJrrkjE0e55ZP/sbxUCxQik766JSlBvnidDBq5QUUSPgUhY4kkEQfF0hw4QmOkjDjjhT7yCOHBAhQgK8jGIa4VSxcIGdvvvv2+2/AAxd8cMIL7zsGvhEnJ4ZiEm98cWfIgeWTxPkGpe/L+b6zFnJ6AXPvzTv/nJzQPYel8s6tJQe0XvaeT3LKyfnkdHIuV3xx1/++/cvGb8f9d9RnJ6eW2G9vhPMmDQd8HYss2Y2jJtp4ww8MOHphjws4WiEkM+ywo+08ruALiS3uVmmlKpCgxBz223f/ffjjl39++uu33/0Y2s/fnFu0Yr///I0lBp3A3/960b5bHLCA7IsBMfSnPwcyEIIPZF9U/qZSC/2FiIDt+8RUDrg/c+zPWwwUyycc2ItPuO8TH3zf/ojRiQEWQ4Lsu1MMPHS/+DGPIqLoCAM60oQ3pMgOOIjACFKQogd0RAoiEYkZ6uA9KBBBCynZgQ+Skxwg+KUJ5+BiF734RTCGUYxjJGMZzXhGMcaAjKDwIhvR+MY3qhGOc6TjGVlTx3O0gyLO40j2oJeiPdzBBwjgCB/2gIcGdKQ3TGRkSLZQBZRk0S8v8QERLLAESaBDk5vkZCc9+UlQhlKUoyRlKT8ZA1OmUpWqROUqXflKUGpFEf+ApTsoAoG0FXEEcQDkHbbQALAFcQ96qMBbSNLIhZ0kJSxJzkqQ/hCENLAiEA5IRzWteU1sZlOb2+RmN735TXCGU5zjJGc5zXlOdI7zHfoAQwpG0AQF/BGQZgACIUcgTD3ggEUjWIGpkOlIZd6NChjQhRvmwAoTrEOhC2VoQx36UIhGVKITpWhFLXpRjGZUoxvlaEcvCg9+QCAFbUCBD0fgh16OIQe65OUwkWBPUdnFn400ifmggIUNtKMdblAVNHT6U6AGVahDJWpRjXpUpCZVqUtlalOd+lSoRnWp8JAECl4wAglwIFOaEmIXKkCCTAFSD2MQgAr+1REmLFEkXdjCFG1KBQu4Q64MQINc7XpXvOZVr3vla1/9+lfABlawgyVsYQ17/1jEDjYeV3VnA4SwgnemCA8laQAHnHA9QJIBAxdgwovessgtYCEvNoWCFsDwDtSmVrWrZW1rXfta2MZWtrOlbW1te1vc5la3u9WtPHDpzgL8gCPCNENJEtCBQgKyDl0gwBbq4pEUKIEMWpjCEXZghJUwkwjHAUIlGQAP8IZXvOMlb3nNe170ple962Vve937XvjGV77znW89kviCJhCAChxBqR1C0oXj8le5ZBBCAuQihbRygQGs6IFbf7ADCPulLzl4QjwsfGEMZ1jDG+Zwhz38YRCHWMQjJnGJTXxiFKdYxfXAZRPsoIMucCQPTBxDAnLAkZbuwb9kUEAOxsDEBv6wQgOjhUJ2jXwEHclDyUtmcpOd/GQoR1nKU6Zyla18ZSxnWctb5nKXvaxkepxgBF8YA4zJgALpAhkHHEHDgMlQZiCEZAwqBcQcSIuFBqhjHnvmc5/9/GdAB1rQgyZ0oQ19aEQnWtGLZnSjHf3oPdtDEhx4sw9MxYRFigQIROjCCpKghz4wkgiO1IIWsKACVizBfFTIgD/o8WpYx1rWs6Z1rW19a1znWte75nWvff1rYAdb2MOG9T1a0YCQAAEJIpkCE3cw6jKApLiNpC5KjOAwVijgithNCRYoEAx7hFvc4yZ3uc19bnSnW93rZne73f1ueMdb3vOmd73FjQ99PP8gC2QgwqhDkoYOyFnZTFRAILDARLdCAQg70AED5jCHvvgACFOgAhUWwAoV3EPjG+d4xz3+cZCHXOQjJ3nJTX5ylKdc5StnectdvnF8i4ICjEzDIC7wzynMARBGEImpcZQcIiSnyE44hSoqAQx8RNMN+GB6053+dKhHXepTp3rVrX51rGdd61vnete9/nWwM30fFDFBEUQyBEGkodlM7MKPc5D2nkNy1RZQxT7sfvc2sAIFd+d73/3+d8AHXvCDJ3zhDX94xCde8YtnfOMd33d+6SMaAvB3BjDOdipgAQta0ECq2Vq+7XbXBxIXbcUb8ICMSCINKrBU613/etjHXvays6d97W1/+9vzwwQNIEIHWEHpN+PFJcjpPBqO0O+Fj/4H3XWCGzqQAwxUYi0uwH31rX997Gdf+9vH/bGDzAIkYKGtLvmBD3aQA0AEIgdVFIIQiFBxJIiCIq0YRBqAwX3851//++d//1v/izQQhA4YAklQh1UQAipAAl0QhiUwvinYgPoLBl0Ig4sAhFfwPwzMQA3cQA50vTTACEuwCGEIBmjQBzRYi37oQBVcQRZsQdsLCAA7;" parent="1" vertex="1">
          <mxGeometry x="445.25" y="233.63" width="159.49" height="62.75" as="geometry" />
        </mxCell>
        <mxCell id="-ltacMk_oOF2rvO0Wb88-1" value="" style="endArrow=none;html=1;rounded=0;labelPosition=center;verticalLabelPosition=bottom;align=center;verticalAlign=top;" parent="1" edge="1">
          <mxGeometry width="50" height="50" relative="1" as="geometry">
            <mxPoint x="89" y="60" as="sourcePoint" />
            <mxPoint x="169" y="60" as="targetPoint" />
          </mxGeometry>
        </mxCell>
        <mxCell id="-ltacMk_oOF2rvO0Wb88-2" value="&lt;font style=&quot;font-size: 16px;&quot;&gt;(kerberos5) 750/tcp&lt;/font&gt;" style="edgeLabel;html=1;align=center;verticalAlign=middle;resizable=0;points=[];" parent="-ltacMk_oOF2rvO0Wb88-1" vertex="1" connectable="0">
          <mxGeometry x="0.475" relative="1" as="geometry">
            <mxPoint x="-50" y="-13" as="offset" />
          </mxGeometry>
        </mxCell>
        <mxCell id="-ltacMk_oOF2rvO0Wb88-3" value="" style="endArrow=none;html=1;rounded=0;labelPosition=center;verticalLabelPosition=bottom;align=center;verticalAlign=top;" parent="1" edge="1">
          <mxGeometry width="50" height="50" relative="1" as="geometry">
            <mxPoint x="90" y="85" as="sourcePoint" />
            <mxPoint x="170" y="85" as="targetPoint" />
          </mxGeometry>
        </mxCell>
        <mxCell id="-ltacMk_oOF2rvO0Wb88-4" value="&lt;font style=&quot;font-size: 16px;&quot;&gt;(kerberos5) 750/udp&lt;/font&gt;" style="edgeLabel;html=1;align=center;verticalAlign=middle;resizable=0;points=[];" parent="-ltacMk_oOF2rvO0Wb88-3" vertex="1" connectable="0">
          <mxGeometry x="0.475" relative="1" as="geometry">
            <mxPoint x="-54" y="-13" as="offset" />
          </mxGeometry>
        </mxCell>
        <mxCell id="-ltacMk_oOF2rvO0Wb88-5" value="" style="endArrow=none;html=1;rounded=0;labelPosition=center;verticalLabelPosition=bottom;align=center;verticalAlign=top;" parent="1" edge="1">
          <mxGeometry width="50" height="50" relative="1" as="geometry">
            <mxPoint x="90" y="159" as="sourcePoint" />
            <mxPoint x="170" y="159" as="targetPoint" />
          </mxGeometry>
        </mxCell>
        <mxCell id="-ltacMk_oOF2rvO0Wb88-6" value="&lt;font style=&quot;font-size: 16px;&quot;&gt;(http) 9876/tcp&lt;/font&gt;" style="edgeLabel;html=1;align=center;verticalAlign=middle;resizable=0;points=[];" parent="-ltacMk_oOF2rvO0Wb88-5" vertex="1" connectable="0">
          <mxGeometry x="0.475" relative="1" as="geometry">
            <mxPoint x="-34" y="-13" as="offset" />
          </mxGeometry>
        </mxCell>
        <mxCell id="HauU1o4Qbi5hm5UDvGz6-2" value="container:openldap&lt;br style=&quot;border-color: var(--border-color);&quot;&gt;image:osixia/openldap:latest" style="rounded=0;whiteSpace=wrap;html=1;labelPosition=center;verticalLabelPosition=middle;align=center;verticalAlign=middle;fontSize=16;" vertex="1" parent="1">
          <mxGeometry x="218" y="213" width="220" height="120" as="geometry" />
        </mxCell>
        <mxCell id="HauU1o4Qbi5hm5UDvGz6-11" value="" style="endArrow=none;html=1;rounded=0;labelPosition=center;verticalLabelPosition=bottom;align=center;verticalAlign=top;entryX=0;entryY=0.974;entryDx=0;entryDy=0;entryPerimeter=0;" edge="1" parent="1" target="-ltacMk_oOF2rvO0Wb88-9">
          <mxGeometry width="50" height="50" relative="1" as="geometry">
            <mxPoint x="319" y="108" as="sourcePoint" />
            <mxPoint x="399" y="108" as="targetPoint" />
          </mxGeometry>
        </mxCell>
        <mxCell id="HauU1o4Qbi5hm5UDvGz6-12" value="&lt;font style=&quot;font-size: 16px;&quot;&gt;(kerberos5-admin) 749/tcp&lt;/font&gt;" style="edgeLabel;html=1;align=center;verticalAlign=middle;resizable=0;points=[];" vertex="1" connectable="0" parent="HauU1o4Qbi5hm5UDvGz6-11">
          <mxGeometry x="0.475" relative="1" as="geometry">
            <mxPoint x="-74" y="-13" as="offset" />
          </mxGeometry>
        </mxCell>
        <mxCell id="HauU1o4Qbi5hm5UDvGz6-13" value="container:openldap-phpldapadmin&lt;br style=&quot;border-color: var(--border-color);&quot;&gt;image:osixia/phpldapadmin:latest" style="rounded=0;whiteSpace=wrap;html=1;labelPosition=center;verticalLabelPosition=middle;align=center;verticalAlign=middle;fontSize=16;" vertex="1" parent="1">
          <mxGeometry x="300" y="499" width="260" height="50" as="geometry" />
        </mxCell>
        <mxCell id="HauU1o4Qbi5hm5UDvGz6-14" value="" style="endArrow=none;html=1;rounded=0;labelPosition=center;verticalLabelPosition=bottom;align=center;verticalAlign=top;" edge="1" parent="1">
          <mxGeometry width="50" height="50" relative="1" as="geometry">
            <mxPoint x="220" y="519" as="sourcePoint" />
            <mxPoint x="300" y="519" as="targetPoint" />
          </mxGeometry>
        </mxCell>
        <mxCell id="HauU1o4Qbi5hm5UDvGz6-15" value="&lt;font style=&quot;font-size: 16px;&quot;&gt;(http) 80/tcp&lt;/font&gt;" style="edgeLabel;html=1;align=center;verticalAlign=middle;resizable=0;points=[];" vertex="1" connectable="0" parent="HauU1o4Qbi5hm5UDvGz6-14">
          <mxGeometry x="0.475" relative="1" as="geometry">
            <mxPoint x="-24" y="-12" as="offset" />
          </mxGeometry>
        </mxCell>
        <mxCell id="HauU1o4Qbi5hm5UDvGz6-20" value="" style="shape=image;verticalLabelPosition=bottom;labelBackgroundColor=default;verticalAlign=top;aspect=fixed;imageAspect=0;image=data:image/png,iVBORw0KGgoAAAANSUhEUgAABhwAAANgCAMAAADgbjLCAAACQFBMVEUAAAANDQ0AAAAMDAwODg4ODg4NDQ0NDQ0NDQ0NDQ0EBAQFBQUMDAwNDQ0DAwMMDAwEBAQDAwMEBAQAAAANDQ0AAAAJCQkMDAwAAAANDQ0MDAwLCwsMDAwNDQ0MDAwAAAANDQ0SEhINDQ0NDQ0NDAwMDAwNDQ0MDAwMDAwLCwsNDQ0MDAwNDQ0NDQ0AAAALCwsNDQ0AAAANDQ0MDAwMDAwQEBAMDAwMDAwNDQ0NDQ0MDAwMDAwMDAwNDQ0MDAwLCwsNDQ0JCQkUFBQQEBAODg4ODg4NDQ1+fn4MDAwLCwsLCwsMDAwQEBB/f39/f39/f3+AgIAAAAB/f39/f39/f3+AgICAgIAPDw9/f39/f39+fn5/f38AAAAAAAB+fn5/f38AAAAAAAB/f39+fn5+fn5/f38AAAAAAAA7ODifAABPW5MAAAB/f38NDQ2VAQEaGRkuLCwRERQ0CQkREREmJCSMAQE3NDRNBwcPDxAkIyMjIiIXFhY2MzN9AwNFCAgsKiobGxsUFBQkKTwfHh4hICA9RW4QDQ1NWZA5QWcoJiaaAABKVYlbBgZCTHlIUoRMV41uBAQsMk0TFBoqKCg2PWAzMTEYGBgvNVMYGiNFT34nCgpASXQuCgonLEIqL0cVDAyEAgIzO1sgJDQxOFgcHywaHCdDCAgyLy8eITCRAQEWFx9zBAQiJjgwLi4hCwthBQUdCwtSBwdXBgYeHR07CQlmBQWJAgI/CAh4AwMZDAwdHBxqBQU3CQmBAwNJCAhLBwfz1vg4AAAAaHRSTlMA7Qa2SUXdiG+DLVJ7/jBiEElACDfgHLBX5FAWw+pp9/oDql73nFiVdinXi/TPaDvHgPCmoQ6/E+HL0n8l5nKQvBgLCTQi/A9HQrgdH5aHeKWkv2rbsughy/QZX+zVQTfzx1QjLUrafGdbh1wAAHVMSURBVHja7NlLShBgFEDhW1D0FioKIqIwFdMQLAylF1It5oc7iCaOBTEQlSTQEAMtIcRFtoXr+H7fLg4nAAAAAAAAAIBeFm6W3QgAWpi8mmUTAUALl3K9aC2VA0APn3Nv1Gzl/LMAoIPpPBk1G/k4AGhhLvdHzX7OBQAtLOXGqDnJ6QCghcXcGTV7+TYA6GC2/KN3cjEAaGEyz0fN9/wYALTwofyjf+T1AKCFx+Uf/S8fBQAtzOfWqPmaDwKADm7k2aj5le8CgBYmLvCjHwYALczkn1HzO28FAC0sl3/037wSAHTw7Hn1R29+yzcBQAd38mDUbOfVAKCFiVwfNT/zVQDQwlT5Rx/l+wCghZd5OGpOcyEA6ODy89wt/ui126sBQAf3yz/6MFcCgBaelH/0cU4FAC1M5fGoWc8nAUALK+UffZCfAoAO7j1dK/7o3Xx6OQDoYCFPR81GLgcALVzLo1GznzMBQAuvyz/6PCcDgBZe5PaoOcvZAKCD1S9rm6NkK+cDgBbuXuBHLwXAf/bu76XJKI7j+Fcry9rM0LLmj5xt6nSx8MdMs1ZaYXnVVTcFdlNwHj4Xo5tdCw8KYxsbgzmGg6aCDP/INIpCKI57fsbzef0FX87Fcy7e55yHAuHZBXr0rBARUSDMo6r0tDApREQUCD3aPbqC90JEREGwGNbt0UV0CRERBcIVHCo9u7gkREQUCNNoKj1l9AoREQXChHaPPsYtISKiQHiMutKTxQshIqIgWMJXzR5dxz0hIqJA2NDu0VUMCRERBUJIu0c3ERIiIgqEIewqPYd4I0REFAj3dHv0Ti7cL0REFATDyCo9BcwIEREFwi0cKz3fMC9ERBQIT1BWevZxTYiIKBAuaffoI6SEiIgC4SmKSkspN74uREQUBJvaPbqBh0JE5JLhRJ83EsNCIhG0lJ4DxIWIyAWrX0a2DO9sjXxZlaC7qt2jtzEmRESOS6UN76WD3lifa/foPfQJEZHD+t8Z/vAu2Ld+R3V7dB6xqBAROavvtuEXt/vEHtFu24nTXqGi9JhY9sfIp/7DhSYiLaktwz+2UmKHFyHYLhybG+1Zfj4xFbq5kegW+01q9+ia7sjJrscrI5fmM2cjL4oD1lOw3/jZ2OmheO9Y5OWiEJE3Eh8MP/mQEBvEkcvaLYc/hHveZh5cj4qdZlHT7dGdjIyuRwuhyCuxVcSJhQ7jD6Mj8bHUmhCRy9Y+Gv7ycU2se4iGst9OqVhvmNXafmsvhzOxkd4ra2KXNEz7J87XC+but9ORj7L4IZm+emNY7NKLsjrlwNhnC908+Tl1eGZqkn9FJXJVxvCbjFgWjaGknFU0D7Z/bBHj6WerYos5FJWT8oXdcquNU+GVzOUBVx78sC7fqDYPszg1czXox9mIXLRq+M+qWPUSe8oNJbN8nAOwEtoUy1ZRUS7Im7VWFkBy6MGiWwesrCscnFQAjE4NChG5YcHwnwWxagzbyi2l3f0KEE5PRi336BPlkp1C7TAMxCY2xJpNVJRrGuU9AD3TS0JETlu8b/jP/UXrPfpAucnczgL3QktiRQY15aJ89TgHPJ7uFwtuoKXcVC+3gVg8IUTkrLuGH931Z4/+l1L1CEj2WtkeRmAqd+UP9oBk5oW1Bz9cZp6EEZ7g9kDkrLjhR3GxZmAcJeW6RguYC3VLp5LIK9eZLSA22y8deotd5bpiM4fw/B0hIud8Mvzok1gziD3lhUIL6IlIZxJoKy/Ut4GusaiFH1C4L9/MIRkaECJyir8uwP3ywXKP3lfeaBwBQ8PSiQc4Ud6ot4DlhHTgPbLKG8VtYIYnl4gc48cefVqkxZoFfFNeqWbRNSkdmEJNecVsY3z6P+jR5/bh17N8h4nIIcY5nwfXB9y2PvjZOEesWUFDeabYAqa65cIewVSeKTWBt0v/Q4/+baecw/KmEJETjHMi4oWIvZvDwOtcSXmo2slHK3rWoz1kVtCTkAt6DlN5qNBG14YQkQOMc66LF67buzmkcKQ8VWjjaZ9cTB/aylP5Q8ylfHo/+m/yJ3h9U4joO3v3tpNGFEYB+JdWSw/UHkwbrTaoqBVLNFrridpqbaNt7/sOO1kXpDdzTUKGhAiBkAAhkqiQkIaHrGhPWoS9Z0gZkvU9wZ+RzHJYzP6bGA4d+XGkeitzgpeDYmQYcdVbdhzLe1488KOdAnBbiOgMw8HTffSfG23woWEffap6LY6BD6YLKHotb+GtEJEwHDoL41D1XBahm2JgA2XVa/YJIu8NF1D0XMLCghCRMBw6eRywbNV7WYQWRZsviIzquUwRM4YLKHovYWFLiIjh4Pk++qcKBqKeO2S8g5IVOPDOAgr9dJgWImI4dLDd8z76pwaG1rx4yHg7BQxN9lEffSGP4CMhIoZDeyvIK0/IVHFDNM30vkQ/Zxfx3IMLKDrIYoJLRIkYDv3QR59L5/CiH17q/lsSoz5vLqBo5wSvJ4WIGA5trHqjjz6XwMcRzUPGLQ/00eeKmPXsAoprpXIspYkYDu098kgffS6LsM/Lh4y3kMe4lxdQXKOM4B0hIoZDH/TRTXYRt/rjpe7fMjFEPb2AorUKIvxiiYjh0A999LnDQHC+P17q/i2Oex5fQNFK5jv8QkQMh2sNeaaPPlfBp74q0ZVKYqPf+uimBJbXhIgYDn3QRzelYrgpnex+9NDQthVY8/wCihZOMCdExHC4xgGqylNOEembl7ov1DHWb310U8kKfhEiYji09gIV5Sl2DmN9VaKrLBZ0/mie6qOb4nx0IGI4XGvKU3100zE2+qtET+BTXyyguKoUCD4RImI4tLSOkvIWO4fFvirR0xjtkwUUV8RxS4iI4dAPfXRTAVP9NbSFVelow2N99JlDTPiEiBgOLezr99HJ7IVK5Sh+Ui1eqFXrJ414JXuaT5ZLKdUVaSu406USPV0uH54pNaWbUmcyGdvuargU0flzMBnS7qPLhWsv9FG2cJxMHKZUd9R4djcRw6G1e6ho166dWd+r8UK+nFLuNLBtXKKbDx2wLCsWi+Vy34u1k3jlOJFWDtUxKJ3cR1F/3UJHVq7WyDYndieP10JEDIcWnupWu+kCQv5zz4enxw7uRz+ciUbv7C0e3Jwd3r49t/JucyKAC7l6JV9SjiUR6VKJXkdkfHxpYyMS2dwMh4eG1tdH37yZGFhefhkKBQO4Ihc/TisH4pjuXh9tH+fw9teFnh0c+Xmh5++PHOzfHfZvLczc2BgN4kKsenRaziinMlaAR3cTMRzc9dEJLEknk08Wp7dejQ+gKVbPJjLKCTuGaHeGjuFJ+4F9j3fXdj7fOZj1z70bxZl60lamKtjuYh9tW3ggnazdv7s9d2M9gDNWrZJMKUcaPEODiOHQyjPE9Gvit6JrZ9D/KhwAYNULpa4fV7SGmK20lPBGDHyZXnkJFJPKUBb3NProsnZNPCS6VkeG3y4FcaZWSdjKWBLjQkQMh3/c1O+jG6bl5YP9rfEggNqx7eye5b5ET+KpmNmdDgPxjDJSwC3pYDKIjHYRsCJGfCP+p8sActm0+fdKHx8IETEcnPfR6jvmxdjq2NwEkEsa37OCq90YuoItMTa8jGJKmTjt/FC1h6LSdIRtMTa5uLUJWFnbuEu/K0TEcLjqKZJKTwovxZHJsQ2gkVFGqhjrxtB1PBRzXzdRy5iFw4J08BxxpamGRw4/FisBFEumDz0zQkQMh6tGDfrocXFqeBm1lOE9a6EbQ8fwzFETE0aly+EwY9BHB1bFob0wYmXD9+DCQkQMhyt2EDO5XTsWHTL8X7wZRe5L9BJGxZH5IA672zlEUP4ft+v3U4gdGp43ztKBiOFw1UPUlaYTzIpzO0NoKAMphHwaQ2v20eZuodHVXyv5Qtp99DFWxLnJFeRSykAV+0JEDIfLtpBVmnKIigvzy8gbnkjhfugK7jkNs6CVVtoq8Et7IyZ9tF9c8C39bDcMrhERMRwuu6Fd7aaxLK4MI5dR+hqYdT90Fftu3hzXdoThbvbRi+LGhxASSl8eK0JEDIfL3iCtXQK8FnfGUVD6sritMbRuH23uORomSTbWsY8+1i8BdsWVe6gqfWVEhIgYDpc8Meuj3RlEzlbakphyPXQJ6+JU1GRvWxUj0t6mQR+9Ke7sDqCstGUQEiJiOFwyZtZHuxRBUmkrY8P10HlMiVOTwYB+lOXwRdp6Hwzo99GvxKXbRktUc3gmRMRw+Nttkz76g7i0jYbSlsaE66EreCGODaGkdFnwSVuLqOn3F8/FpShittJWw54QEcPBaR89IG49MbpnWXgsLX0y6KMHxbEllE2CrD0/jpSmIkbErYhJJX2CMSEihoOzajeJd+JaGGXl/quaCd2h7W9YE8de699gy1iS9l7hWP9Uqcfi1gKySpk8qhARw+EvX5BTmrKGq+jdr9iv4b608hU5g6OvnbuBRPd+DRrGobsfD5m/26gtyxcdiH6wdy89TYVBGIBHvIuKt0i8U4FyEQPhIjdRVCSibvwBJq4/8y6Im66bkDYhpaFpAk1DE5AmDeFHulGrKdFvOsPRxfvs6TndnKHn/WaGxeF3ndiLf/fQKWZdmqB0HyuGm7bm0SKL8cVhE/PyR9d7MsXoMU39YnYTJd1gKCJicfjFWU0e/U7MRlHX9A50Gm96x5JHyywK+oY9+xfP4r7YjWA9xCpzLisRi8PvFpFXRK52d1DSLINLG/+jr2PFFJBUDKM+DHn0ktg9VswNzLNFmojFoc1oN+RxUhwsK3oHsuiSo5zAhmH0dbxxrEf3NPd0yB9NoBziFC81P8sWmKjaDYmIxaHpNUrWYRb601HWQzRPUUpkU8EUVoPiQn559Kw46EdZURy6hYhYHJrS8Xl0w+cs/DAqhuKguGn7RLkL2A5eF3p5KZOLTocHxMEj7CpWZ5wUImJxaHoUPwlvFS/EwZyuOChuWrGKWXuSy36ha5o8ukscnMVX/nIg+iMWB4/DmhUsiIdZFKxjsO9iTTX62r7pwn6hZ/F59AEui4N5bDFzILLwLw6pwY+fHnj69HEwdTzF4YQij+5OvDhkkTYc0jTn0d3IB+2F7Hn0OvpSTsWBp5WILPyLw4fP/j6Yi4Mt2g01zIvTayVjn8MQDnQxsX3unv1CZ6Jr4hrGJOnXSmVMChEdd3G4+vk4XDUVB3sevY9TomOfdNrAG2nVi8NERl9P40tOfSF7Hr2FAfHwXFEcvuK5ENFxF4eBz8dhwFgc7Hn0HfGwoGjcrePGkU+9rURWMb/BfvC60Er8Zx2iV5I+yrqFeSEi/+Kgf6uk98FSHOxjRyuYERc9yIVYB3gqrcYSyqMvouY2Y3sw/rMOWnqtDYlJpBrOCRGxOLTRAlx2yqOnsGpcUJZS5NHLr2xP1/gZ23+50ENFHj2SEg93UVUk/71CRCwO+mg31JyGOr9W7GXOYVlaXYj+hCrmxOAWKuoZ2/akZQ13xcWwMtwhIhYHfbSr36hmf/keNnBLWnUhm0gefQerwWvG9pQij/bKhvtQDJqxgUTE4qCPdnOrmBYPvciGWFXMmtYFZXHfuC3H60KnDXm0obZFW8W0EBGLg77VuIIz4mIem8ahDrOo2mJi/zvdxpJbtl3CkHhYUizOKKJPiIjFQdtq3NyoZjeJsu30fUcfiomsYj4Zn0fjbzO2uzV5tLhI4zAEReknIhaHtvLoQXExi6pt7t4StnUxsX22uH3G9owij37yD36icSgrEYtDu3n0irgYV/TANY5qyr6PbCKrmN+hFLxmbF/Bl/g8+pG4mEA5aL4AEbE4/DCALd1gObsXKAVbD1x/Qnl0J/bcZmyfis+j95AWJfuW0B32wBGxOLTValxQv5S2j6QIuSPXZT5GNZFVzGexaehpNuTRT8VDRw+Kqp9oRMTZSu3k0ROiY39MhgqGj3roZYqJrGJeRF49Y9vea72BcXFxGduaTvTXQkScytpsNVYuOrN7aF1sfAPbtpjYf9PFGu669VrnsSguupDVnGRNCRFxn4P++VHHqPgN7LZks/exo05ZbZsu7D3N0/H9aJs4K3qqVsFWBcwJEXETnOL50cyjX4qHaWRytmlwk9i1xcT+my4O0evWa72HTlHR50mtylwSSsQd0r+YVeTRw+LiKvZDMOW8cyhE59GXJYJ900UJQ24tByW8Fw/XNXl0DReFiFgcvkv1Yd08wU5/BMj2JvzVciYX/eeWPPoJ1tx6mk8q8ugT4mIU9RA0QxWJiMVBcZ5FcQ5e8cg1BMqjqCezinkE6+qeZnuvdR5vxcUgdjh2j+ivWBz+kzy6o+XHinaX8jNjHq2fLGLvab6pyaPPi4tulBV59IwQEYuDstW4uVHNblRz+H4PactQiENTHt2LQ7ee5tvxeXQDt8VDahwbISheGhIRi4O+1biKOXFxHjXNy46b0mIYBX2cbdp0Ye8gO49N9XfWa+0G0WyjICIWB/Xo67CL/uTPVxYwo9iopmhbVtypNkO259ELjo3omtNWRMTioBh97fyv5dRypqiYFDopLVZQt7Ut609y2Xua72Ej6dHZT5BXTClZECJicVCOvm5uVLNLoxGiNZCWFoOoGdqWVZNF9Bmyffb3JubFw7SqCjNyIGJx+EU/dkP0RrUO8TChGOlQzFyaNoxmMq5i7kJWnyHbZ383cFU89GqrMBGxOLSTRz8WDx2aIzRrGDONZjrAUDKTiUp459b4t4oXTuMNdzVVmF0ORCwOP3X0XCqqNqrZndJ07e7gorS4gvg8eiSZZaYbuOc2+7uCW+Lh1YiiCucxJkT0jb272WkqiqIAvAFFBav4ExtAsShVQIimgogooCBBZe4bODhmDRonHZM0bdK0DU2TtmkgaSkJaXhIQaP1t7377it2sL4HuINr4qJn3bM3w+Gb66ffR8+h5LxK/fETmrNoKPpo46YcfYds76PDAXU7Dc2HrMtCRAwHxehrwwQ789+zSUwbvtC0rmJeRzmwDvk9Cqc9AK9PcaqUinPRDxHDQTH62jTBzv737C4uGIZCWFcxj2Fb3yHb++gGNiUAo5FERpHCs0JEDAcfo6+TWJQgPEFNc6o0IL97isqprGKOombokA199IIEYBl1zanSpBARw6E17z+R10yws5tCPK9oSWfld6OIO28yiInBM1QD65BXkfT8rKcShH7FPfRMInRDiIjhoBt93dqoZreiGSJ99MeW9AwOFWO0/VvznpxFhG27qINfyLaJpvOsiFUhIobDd+exq1nIZjcfQ0Xx9+zGqPxuydhH65PT3iE/1/TRk8HU0fuaPT93hYgYDro+ujXBzu6i5tJuCWH5gzDSpj5an5z2JWr3UNc8y+4S4hnFdMPYmhARw0E1+rp1Vdlu7Raqmu3Rm3/eqFYxjdEOPjlTcSwEtYs6lcCQ2N3BjuajsBUhIobDd2uhREoxwc5uUvMdaxL9io1qhlXM5uTMol+xGFX/LL2BkOI71nyc07qJGA7qU/XWBDuzhRiSmh1wk7aNamlFzapaGqHvkGOKPvqx2L3VbHKo4YkQEcNBuYq5NcHObEXz6X0FM0O2jWo7OCf+XfWenLuYDKyP3sWymJ3VNA6pJkaEiBgOulXMrQl2ZgORUEVzL2vFuFGtjkHxwJ6cB7jaqY8+0jzLqnda86lSGtNCRAwHn330TTFb1Jx15BIbW8YJdgVsiZ4+OVOJ0LxiF7X2WXpLKKecZwdcHk3EcNCfqrduDFgto5l3nu395ex9CwXFGG2DfkUfPS3t3URS8SyrgQiqmt7/1jUhIoaDchVz68aA0XpE00Zn4qEB4wS7NN6Knn5phKthTtqbQcbrs+x99Ktp7DnvDjlWiYjhoDxVt0+wa5nvV/2XtYOwdYLdDi6YOt2G9w75vLQ1habmWUZzKOedZ1X0zAsRMRx8narnEBOb3lU0UpofDli3blQ7xIjo6ZdGuAM87LTM+UjzLJtJxCuqHw5LQkQMB+2pemuCnc0cCjnVD4c+8wS7OG6If2FFH72xFmAf/UpM7oWQdt4lERsSImI4/Kc++j7iWeddLhG6ZL0xkMML8cq0NKKKZ9LeI0Uf/UxMBiOoOYUDXBQiYjj4OVW399Hjc0gkncI25swT7NLoEz390ghXQ1TaGp9ARtFtW9zdwI5TSGOYI/eIGA4/m8SeO5UJdqNPEK86hSwmtswT7HZMh+lXcOg9ycY6/Btp+ugxSwifA0pOIdXEZSEihsNP7qB4KhPs3gyjkHUaDZxTT7DTr3VuMS2NcGWsS1uXse39WdfFt3erSNScRomro4lOMBzUp+r2CXYLUeAw4zSKGH5lvzEQx0vR0y+NyIcivZ0Kl32vz0pErolP42MzKFSdRiUReihEJAyHHy3gU+qfT7AbuhBDopRyGpk4Bu03BioYFoMXyHnuoxelvUUkPT9r1m803O0HtjNOpY6oEJEwHH6yqemjB8WH8TdzE0A953S28TaAGwNphEVPvzTC7eO+tNXrvY/eR1T8mDo3DJSTTqeIngUhIhGGg89bXgW8E62tsTsxIFTPOqU0Zt4rbgwo1jorjGj66MudNnaWNd221vxg9CmActop5eLcHE30FcNBccvLMsFu6nJ0GscOSjmnlSlgLIgJdg2cET390gjXxKUA++h10RgdefAoAqCwl3VqdYSFiI4xHNR9tP7GwPPBpb4eHCtsFzPOh6N25fe4po8eNW1SS3sNM0yMB9ZHI9IrHr08u/y4H8cSh/sV50MRPS+FiI4xHBS3vNQT7IbW712MLk7gRHO7lnX+1BB7F8SNgQqeihfmIR1JPOrYR1ft3XbLtakr51dWb+FEoV5K5p0vlQTuCRGdYDj86AwazjzBbnzh9frI2FI0PNuDr5pHpXTG+ZZNYFBxQqNY66zyHgXnUaljHx1B3t5tz28NbN69uHLn5nAIXxQO94oV51u+zC+ViL5jOPi75RVH3/0H5449+Op+dO5O3+rNZ09n0FJobO8Us3lnki/jvuKExt5Hm4d0uKNOre66po9+dvyiW2965fhFh1dvzvb3hPDdp3J9r5bMOJtdTHNuBtE3DAdft7xy+KtEodw42isVk61UMDnC7LVgbgw0cFb09EM6XBNT0taYoo9u86KbB/XdnVo6m3NBKGJiQIjoK4bDj4ZRcR5lsulibf9E7YtiMZ1MVrOVTMoFq4Se1x1uDHgMoVQcC6KnH9KRwYy0F/W+7D9fSbZe9IliOn3yonN5F6wqCweiHzAcfumju00aG2cDujFQQb8YxJALbNPFLKquy+QKeCBE9A3D4Zepo10mG8d53QmNvY/WLo3Qb7rojYTyrrvkD9AnRKRgCocR+R9GfIbDEnZcd6kUEA3shGYPk6Y++iiwTRfXUXbdJXWIaW5/I1IwhsOH62vXTtva9Q8+w6EPaddVMk30jQd2QtPAG9HTD+lwBTzv/Gunu2xj+J0Q0T9z+2M3uq2YOtpNMgdYXJNOJzSJvOdVzEOipx/SkUNM2oui5rrKHmL8UInoM3v30tNEFIZx/BUVRS0gXpGLBQpIgdRwLYJcChpvG1duNNGVydRn0biZdZOmTZq2aWNSSFMSoCQN4UMadeUGzzu2M4fw/L4ApJvJnP+c922nj0kbfRQj9y3r0aUGogMirTqhKSh6tGpIh37TxTPLenQZkT4hojb6krTRF8NUYVePLjXQeV/OoO7R86KgGNKh3XRxJ+xa1aPLCF8RImqn8aSNxsVIl1U9utRE3OAYfMH4hKaOdfGuB6ct23QRw7FjkSrCj4SI2uph0kYPxcgbm3p0qYH+F3IG9QnNMfpETz+kw6ngnZzpOuqOPcoI3xQiaq9FG4v040UxMmRRj843EP8g/7b90s0a9+hF8W4FmZZtuliwqUfv872ByA8LSfssiJF3qDi2yB+j860YMD+hKSAqCoohHepNF1EUHFvUEbktRNR2a0n7rImRmzh0LFHcRXRLDChOaA6wIAre13qW0WXwtmOHbBqRq0JEPthI2mZDzFyzpkfXKpgdEAO6Hn1dvBtGWrHp4rz06HwDczEhIj8kPiXt8ikhZjZt6dE5Fw8M/mnlCc0xYqLgfYxqCltypnVbevTeCeJTQkT+mLLrItzHKTF0yZIeXQU2xNBiSNGjE6KnH9Kxh3452zx+ODbIpPB0QIjIL7HPSXt8jomhF3b06PwhXl4XU32KHv1MFLxfW8vhwfno0WVglIvfiPzUfS9pi3vdYmrCih5dq+D5azG23uIerR/Sod9FmgjZ0KPzTYSfCBH5qvd90g7ve3VbMIOWrbpY2hID6hOaOobFu2HzTNDAKzlTnw09OlNBP1M0kf9iS8ngLcW0WzADVjhGqGtEFDpRMF7FfFcUvF9bS2HZ+h6dTwNvmBuIArH2dTDI9vB58OuafgtmoLJlF9GYaPTC9ISm5Ia3RU+fCfYQt75H5yqYGRYiCszAVHcwpgY8bcEMVO4EL6fviMpVNExbBmZFQZEJ1LtIOwPu0YUmsPlOiIjOQY8uNIDZHVG6hX3jHj0uCopra9pdpIvB9uhiHRjqESKic9CjC6dAf4+ojRqf0KQVPVqTCfS7SF+j4QSmWE4hMr0oRET29+hME5hZ3Ra9OPaMe/SOKCgygXb26xPsOwHZq7vAPE+UiEhhDnknCMWjXeDS6rKnpmO817QUCneInj4TFNCpeNvxUzZ3CITnuSqaiDSmcOL4L587dIH49YR4csWnHt2r6dHzircd32Rr9RQws8G3BiLSGcOp47NCteECkflXI6Kk79FHih6tyQT6XaS9+O53jy7+OE0BGOxhayAirQ1fe3Q+Uz1MAYi8GV4U7x4gZ9yjFblbkQn0s1+v+tqjs4WD9AmA0OzqCyEiUhv0q0cXM9XTE/wSnbyyLf+lX9Gju8W7UU2PThi87fghXzuoH7sAMDQ6tiVERF7MtL1H52u5avo4hV9mlq7dXpb/tWXeoxFR9GhFJtDPfn3Q9h5dKuSO6s0KfgnPTo6tCRGRRzfa0aOz+eJeIZM7qO6nGycufgvFL1+bWJOWeISmYyaDFfFuGSlHMfs1gB5dKu4VarkfR+V0czeFPy4NTvbsdAgRkS89OltJGXFd/CXUP7iwOraTkNbpgpsy42JSvHuFUMqQi2GDr2/NpE1/6BD+Mjc7Oj3cx7F6RNQCk8Y9ugBDofDM885nTy/Pb6wO37z7tkNa7jLM9Yh3t6Bw1+DrWzMV8x96KB5d2Ryd7Fqf6FtLCBFRqzxFxnywXIeBEWm/DgX5DyOqP9SqHp3HzLbB3+PBERG1z4h5j94H94f58vVtBktCRBQMfY9u4LWQD1/fVjEtRESB6kHa/EN+3rNV8N6jDzEhRHShfTMkbTOJI+MeHRXy7Daa5j2ad5qJLrjgHw4rqCkGy5Fnqyg7ZoqYEyK62AJ/OIxEkFcMliPPLhv36Bw2hYgutsAfDt3Y1QyWI8+eo+iYKeOaENHFFvjDQdWjecnKu/uaHn1TiOhiC/zhMM4e7Y9Hmh7NxTxEF13gD4dZ1BSD5cizLkWPHhIi+sneve00EUVhAF6gYlVqPRAaFZsKBQExJcqpIoiIxMMD+Axt8pNoYvBGL0wcTT2AxkRFtJ5jxXgKlZBWfTVP8UZGs/Z009kze31P0NLF+jvzz0wt53c41Ccxw+6jIyRq0kevISGE5fwOhwmVPrqJhGe7FfroDSSEsJzf4ZBQ6KMnj5Hw6jTu5JheYycJISzndzi042mO5yEOkfBsE57lmM6imYQQlvMvHNT76HYSnq1X6KNHSAhhO5/DYXvyArePvowECc/GFProOAkhbOdzODTx++j7mCDhWZ1CHz1MQgjb+RwOCTzK8cxEk/LDY94dV+mjt5IQwnY+h0OfQh+9n0Rt+uijJISwnc/hcAg3czzPpY+uxnrcy/E8wA4SQljP33A4NnnhKruPjpHwbAxXpI8WQgQlHNJ4ye+jN5Pw7AC7j36MRhJCWM/fcIjw+2ikpI/27jC/j36BEySEsJ6/4cDvo68gQ8KzDpU+epCEENbzNxy6FfrovSQ826fQRw+REEL4Gg7jUemja2OA3UffRSsJIYR6OPjTR7/BRhKeHcB1dh/dSUII4Ws4jLL76OtI7SHhVZdKH32ShBDC13A4iLvsPrqFhGcdeMv+1QxsISGE8DUc+H30PRwh4dkRdh99Ew0khBC+hkM/v49+izYSnrUo9NEHSQghfA2Hk3jB76O7yC4TES86yFUPu49+hNHavV6+RKytY9PadFfzOAXanlikWrF6cmPG/Gn4mLemu47K/a5G8DMcOhX66B6yzA54knbvo9/kmF5im87Xq19yJBPf29iW3kVBFEH13NPbkPnTIzqSad0Xa+onoSY84aDSRw+QZerwdVrZB6wjF20KfXS0v2avl+/b10uvlhYr83MfCvijrrevc13QbubuxdJ0dZbQS65MmL9q/fyYf3zKyw5+G2odTctRhILwhEODQh+9jyxTh6mssnNYV20f3a319eqXL36Zff9xab7wZ300bttOQdEcLeSrff+FaDO5MWH+tClenP20NFcAgJ41o3KLE1N4wmEL2H30M3SQZXSGQy+7j36KvqAsk+LF0vTviEgNDJ8MRkBEsJit1iIi5MaE+dPtSenSHAA0rJdHMrOEJhzW8fvoOzhMltEYDntSCn10JFjL5HN5eg4AeuKxAPx+XQtms9WaRQu5MWH+VkOx/GoZQHdnMFumIPMxHDrxOMdzCwfINhrDYaNKH50O3jKZWvgVENFM4xky2tGok89WK+9EXdekCfO3Wi5+WwaS8W0k/is84dCq0EePkW00hkMMl9l99OR4MJdJsVRxALQkTK6oGWeVGBaRIBcmzN8qWlh0gEyHPETnv0ITDkN4wO6j15NtNIbDXjxn99GHgrtM8guvCkAyvpZMNYBytnpljJELE+ZvVRU/LQMNcjPs/4QlHAZxNsf0DJvINhrDIaPSRwd6meTLFQdoGDXz8GHXpKPjbzTlJN3enwnzt8rypXdAt327gC8s4XBCpY82/GTyLwb8c7qGQ30KM+w+OhH0ZVK88Q5ItZt4AUMCi1kdKojRSibM3+orvwMG5NKlfwlLODQq9NF1ZB194bAZ93NM99EUgmWyUAEmD5p3cTzjrBJLCWtoJRPmrxZKy4i2y5ODwy3O7qOv4RRZR1848PvomQvJ7aFYJp8vOYjGDfuCOcg4q8Q9r9RPK5gwfzUxNe1gZCeJEOP30bexgayjLxz4ffRD7A/LMil+cxDtayaDJFDJ6nEOLrWsCfNXI5/ngVY5eAivXSp9tIXfE/SFQwYPczzP0R6eZVKcdpDaYNCz28ZQzurxHnFawYT5q5n3BQylSYTUWrzm99GnyTrawqE+ye6jLyMRpmVyfgkYMea5K4NJZ0pX7iE1Tn8zYf5q5/w8JodJhNOwQh+9m+yjLRwmVProiXAtky/zwClDrnSLoZLVZR4rM8+E+aulj0DcoONCoVEc19h99Bqyj7ZwSPD7aCTrw7ZMSgX0jBpxW+0plLK63EAr/c2E+aup7+zd3U4TQRgG4I+q+P+LkaBgqBaQWqIpRRBTVFAi6o2M8W0iSYMncNiDlQM8dNOkPSLWJqUlUCCC3pq2tNA2KLt0Z7ud+Z4raPvOzpuZ2e5upxD04h3LrGk9Ns6jdVw/OlYOAzbOo5+qN5lktoDHr6nlxvqREU6JI9RFDbww/twVN9H3iph6rJ9Hf8d10o9j5TBi4zx6SMXJZDuPcOsfunAf88I5SdymBl4Yfy4zdhF6Q0w51s+jP6ENHsZM5IWL84hy6Or/bP08+qqSk0lsCxgdo9Y6hU3hnGVEqIEXxp/rVtGv4Z2MysPXD9Z8Qw9pyKlyuGn9PPoHLig6mWym0DlMrTQWQEY4p4iwj+p5Yfy5r8DtoCAb59HdpKFmy8H+efQXBPyqTiZFE+HrZI+Hd5WEMHGa6nlh/FnB7cCOg08WfcYl0pBT5RDB508W4bG6k4mxhcutHEfdWBNOWscA1fPC+GuFAgL8dzjFwDrvPqC/lhcuziPKYRLWDak8mSwDoz5qkZkAMsJJRfT5qY4Xxl9L/ELHMDGV+KwjHTlVDj4b/EpPJtkUXkxTawwiKZyVwxzV8cL4a40NTPD7pZlGmigHK7zxed2V3sHTcbLI27tKQhQa13n65VllJPHEE/9zZOwo3rg4uRz+K55D8B21wEwIGaebDlGqo2GeVZk8hogxXXA5SJAx0XmLrPD6rpIQOTyiWjrmWbWXgGcesMhYA29cnFwOx4glEXxJrruHNeG0Ap5TLS3zrFpDWMMnNzNNcTlIETMRvEMu6wohLpy2hwmqpWeeVRvoJcb0wOUgR8zE5DVy10UkhfPyuEk1NM2zIpbHFDGmBS4HSTImXvjIVaNYFs5bwEOqoWueFVmE3hNjOuBykCW+gwi5yRdGXDhvEZ1UQ9s8K7bwlhjTAZeDNOkUnpGLbiMpZNjBFTqkb577MilcJMY0wOUgT/aYOx/bYldJiF84T4c0znPfGjr1fJgC0w2Xg0RrCF2gf2uLXSUhthGkQzrnuc/EA2JMfVwOMq0iOEYuuQ1TyLGDYTqgdZ6VsgxfI8aUx+Ugk2HiHrkkgmUhxxIu0QGt86wO//PEmPK4HKQqpnCOXOHrQFHIkcUIHdA7z7JFXjowHXA5yJVFYJjccB2mkMRI4TVVaZ5n2S4vHZgGuBwkW8KIn1wQwbqQZbXmCFb3PEsW0TFDjCmOy0EyI4dnJJ+/D2khSxZPqUr3PMuSuEuMKY7LQbZF9L8i6d7AFNIYKbyjCu3zLFlBkBhTHJeDdAuY9JNsA1gX8mxhiio4z5I85ogxtXE5SGfkMEWy9aEo5FlBL1VwniXrGCXG1MblIF8W4Zck1xnkhERG4nL1G3ghT2PxpNLFjHBCHAG+m5UpTotyMNIWFYsZGd2zgVFq1E67SkJsHJzAeiHPVTRjJ/l7My6atMtH0kx1WpTDEuxImfNL6ytp4Zx4ws4Wtfx7lYx43BC2/MQT2ueFPOcx2XsyI8HoZZTkFooe3WhjzCO0KId5dI5YMRns7Aldxr6E+ftnRjhjGSMk05y9XSUT2BC2xBKz41TmjTzPNFGkt848uNcBIJltbqPtFjGmMk3Kwc7nHb9w5u7Z7s5ySZiFPeEAI49BkmgIBWFdEf2zdn/GXVylsvbL8yj+R0NhINlEuBs4R4ypjMvhX6ZvXDoVApBbj4umbcp9CUAUaVvrmMhb/LT7BU5RWdvm2WhmKorEgsH7Si330SJix1Dm4myHz+ubG+oBsLstmmXKPMC8gZy9n2PwHLbs7iv1X6OSts6z3szDWSQzosr2DzJGjMtBYVwOx5mLBAAzK5qTRXSarJC/q2QkZq+9Rsr2b3ifSto+z1qvJpCPi5NJ8utCuRzUxuVwvPFLUSC5KJqSxBTJ0oM9Wz3VSxSEze+zhm4qUSDPGnd6T9wOyxggxuWgMC4HK7rORYHVWHNLhx4fyfEIOdvv7nmIgrAlg0B56aNEnoeme2Ea4iTSmCDG5aCwDi4HS6bPB7CzIppg4irJ8dzeRJ/HBaI5mLaXPoP0lyJ5/mHvTn6aiqIwgB8xoiI4oghoGWUWjDIIIpNgcNi7wcSVyU3zsSAhrGDZReOCdUNSViSGhAJhKCnDvybKo9FUsOf04Xv35vz2xgMn53703r53s3rasGBEkvhASsPBXYEPpzX1TowAC3EjlkEbXYyXrF2lZVQSUdFzzHL3lerpmDP9PFXSgbSR2EcTKQ0HdwU/nPbUG2lEYtaIrV3QCWY51g3D5sleeT1ShmUWHW/omDv99JQiITx0aCal4eCuEAynPfW2tmEvbaRSeEQXoR1zvO2hKjrWgH3jYf1Dl/p5oqgYi0ZgHv2kNBzcFYLhtKjengrEFgu4MqeELkAx5nnfzx+jY9VlsTj3L+UXdMylfp6IYMkITKOxjpSGg7PCMJw21TuMWMYIHaGZ/DfO21XKYIR+eYZV7r7S8yIix/r505tLWJbtE5aQ0nBwVhiG06p6S+WfHXbQ0UOewHaVdnHt9Ac5NDwJ3CFyrZ8FvPB8Cw2kNBycFYrhtKreUsTSRmYGEfIEtatk9jBIv9z0PnFwj7Jd66f8Au5NXCWl4eCsUAynXfW2I7ljRBYxQH67iT3eKWoxeSq5myk7uFRH5Fw/ie7VxuKGL4N6UhoOzgrFcFpWbwUScSOyh5vks6s4MgwbGJZvpiRwxcV+EvVj3vAd4CkpDQdnhWM47ap3TPxQ7RHayVfslyQlMEmeKiyx91GaXewn0ROkDN80OkhpODgrHMNpWb0ljVg1Egd4XUe+KuHtKn1HR1E242q5v8tlvHayn9SCDSOQRB8pDQdXhWM4bat3COtxI7HmdyXXcWgYtlFBWe+RYZd/18l+NmHXCCT0u6waDg4Lx3DaVm9dPzaMxCa6yVdtSBuGLUQoy7vxh3di4WQ/r2DGCMxgkpSGg6vCMZzW1TteFps1Hv6DZIHtKsX/eJMo/8afA1Q62c8uLBmBFdwipeHgqnAMp331vsCKYfMOhH30inc0nsaA8DDbs45yF/t5EwkjsIEWUhoOrgrHcNpX78da76OD5As/ge0qzeEqZQlu/DFzaHexnyXSp+Cuk9JwcFU4htPCeru9k+BAN2YGkYzzDpS76Dd32WviPIpd7KcwHFL60m4NB4eFYzgtrLe1LDZtBNYxTr4pxQLzxKOOsrwbf9iP8TnYT2E4ZPCClIZDnlrvPAzGnVabh9PGet8jZQQO/dyKGEC6oMvc6pHil+9gP4XhsIoKUhoOebjSOxUN0lTvFVuH08Z6q7BmBNLoD2xXaR8NlCW78SeNNgf7KQ6Hy6Q0HP6pcyoavKlOO4fTxnrrXmPZ8MVjb3v821Va4f3XZdWUJbvxx+yhxL1+CsMhjRFSGg7/MHE/Gg73J2wcTivrbcacEVjCHfLJU6wahlX0U5bwxh+zgFfu9VMYDvPoJaXhcL6HNdGwqHlo4XBaWW+XbF9pE8Pkj0/MXaXDnHVdcONPGgPu9VMcDo9IaTicqzMaJp32Daed9T7GjmhFGSB/tGDFcKxhnLKkN/7Ekxh0rp/6yYFJwyFfVdFwqbJuOO2stxvfRIcOZX3ki37entAOHlMO/sHJCkqd66eeObBoOOStOjx7Sidqqm0bTjvrbcK+EZhBFfnhI3NX6Ru6/bg+eRX9zvVTGg76bSUNh/MNRMNmwLbhtLPeUSSNwAaukx+GsMv8LTRRlvzGn3gSH13rpz7nwKLhkK/JaPhMWjacti0mnmIciJaUEZ92lRYNw3Ss9jblGGtkP+i9iyHX+ikMh0V9QlrD4Vxfo+Hz1bLhtG0x8XQjZfi+4zn54APzGYXFnNNT4Y0/i3jmWj+F4bCNJ6Q0HM40Gg2jUbuG07bFxBPBghFYx2AAu0oLaKG/uIZd/on6qGP9FIbDN7ST0nA4U3M0jJrtGk7bFhNPl2xN2UITFe4ZFv14tHkCSX79Ecf6KQyHDZSS0nA40+doGH22azhtW0w8Y4gF9hjcA+au0gFeUg7ZjT8Z9DrWz3IsGYFDREhpOJzpSzSMvtg1nLYtJqcqMRvUifQ1bMlvGSrsxp/p2Ntqt/r5DjOyj4BVpDQczhQNJ7uG07bF5NQIVg3fLCqpYI+Yu0pLOQuZ+MYfs4+IW/28gS0jsIRyUhoOGg4aDrmakTICSfRQgUaZu0rTaByjv6rj3/izjfdu9XMIR0ZgHR9IqbzDoeZW3+3/re9WjYZDEPWWYsMIJFBOBYpgy3BkctZz6Y0/3iMTTvVzWPoilCJSKu9waKcgtGs4BFFvA3aNwApuUYF6kTEcu7h29g+xz/+FNjjVz17R9uAOXpJS+YfDDQrCDQ2HIOq9i6Vgvh9fzb3B+ox3qQpv/NlGhVP97JBUYVb1vXtKw0HD4e9asRbMO3ki2Dcc8yimHPIbf76jscehfv5g7056morCMI6/ggpG6xyNOMQiikONJoLgPOCEcYrzkOhCNyfhYWFCWJVlFw0L1k2TdkXSmFBKKEMA+WpWF1dNCvK+PZW29/l9gKZy4vnrudzz3rEtYx6dQsQ4MA5lHMS8M8hWPNLhpvJUqYAbqz05GXFKaZxooPVswbLtNYdWIWIcGIcyopGEMxhETCrSc1R5qpQq9xOwT/xxebQ30HpuRtwZpNEvRIwD41BODElnkEGPVGKH8lQph1iTrOwAss5pP7CvYdZzFyaddRWJGAfGoZxryDmDFLZLJR6iaH+A7GPij0tja8Os5yGMOv6yEpUwDrX2l7PeNpM/bMaQM1hEm79TJftVefaJP24UFxplPU9gPukMFjjqhxgHxmEll5F1Bsu4/j9PlZIZ7JNV3O5Q/1SHEGtqjPXsOYCisxjBdSFiHBiHss4iuw4vOjQrt7M5XJaAn4k/LoVdjbGezUg7kxRvViLGgXFYySUsOYMiusSu+2gi5zSG0SKrasWsvm9dDbGenZjPOYtBdPDyDGIcGIcVnLfF4Ruaxe6Y9oLpCZyTgKeJPzPY0FT/6xntRCLuTMb4fjQxDozDKnGIO4MlXBK7/Sgqnw9siErA08Qfl8KDul/PnodIzDmbcZwUIsaBcfAahyH0itntDuScRh4XJOBr4o+bwvF6X8+2A5i3rF8wdpWIcWAcvMYhiY7/eKq0iGMS8DbxJ4vD0bpez73NQDrnjJb4lgMxDoyDJg7VH/ezH3nt2IGDEvA28cdNoL9+17Pv2EUgk3dmBd66R4wD46CPg32GmP9TpW84L//Ujrxhe6zP9ew+19ocAzKFQWcSPOQnYhwYB89xSOGUGJ1AWnt56BUJeJz4s4QD67ae7S0mZzqPt5/vjaAkXUw6m+APT8Q4MA7aONhH0/v/N/4k7kjA48QfN4lz67Oe06hIIjWykHOVWcYNIWIcGAdrHPx/oz7tqVIW1yTgc+KPG8aZ9VnPmVGrfHEsPuQql8xguxAxDoyD7zhMo81+quT3VWb7xJ84er2sZx1awCUhYhwYB+9xGMcx+6mS/8u1g4k/6gOrkMbhK44IEePAOHiPw3fr5rInhiGnMZg42i0BrxN/3DJawhmHLGLdQsQ4MA7e4zCMk8aF1p4qjeGiBDxP/IljczjjMM7H0cQ4MA5ViUMB28TkAkardAVQG9KWKyTCGIdc4t4jIWIcGAf/cZgyxqFJ/SbzPE5JwN/En+AVijDGYRjtQsQ4MA7ViINxV21D2v8VQPaJP3O4HMI45BIR3rlHjAPjUKU4bPk/p0pT6JQ1OoJZp5XB1fDFYZn/cSDGgXGoUhxG0WI8VZpxKmnskoD3iT9uHNtCF4ehROSUEDEOjEN14nBGDHYh5VRy6OiTgP+JP99wNnRxmEaXEDEOjENV4pDHDTHo0p4qLSjmkVom/iQzeBOyOMwhdkuIGAfGoYbiEN2gPVWaRaus2W5MOK1ZnAxXHJIpbBMixoFxqKVjpY1IOZ0M7kqgGhN/xnA+XHGYwuY9QsQ4MA619EBa/RJzHKdF4QLy+nOlyL4wxWEmgX4hYhwYh1r6VVb9qVIBZ0TBMPHHTaM1THFI47gQMQ6MQ029BLdJfaqUQr8o9Bgm/ozhUIjiUEDvTqE6Fo3eL3lf8vm+rM2HxyXPfnr10/OSt7+8/Ol1ybuSgYEPjAPjsA53K9lOlXKINYmCZeJPMhE5GJo4xBHh5Gg9+/79+fOXkk8lHz9+fC9r8/T3/v3y7/37bx9kbZ4NrAXjwDj4isNJ0YoeRtapFLFfFEwTf9w0joQlDrlJbBHy7clK+7dxM388UJb98xiHmths6+372q/sbhWtfkyo9+0domCb+LOAmyGJQzKNi1Eh3wbWaTN/4fvzGAfGwUMcRrBDtDpRUL+htk8Ciok/2mlCPeGIwwh6Dwp5N1AzmznjUMubbb19X2scZnFCtK5pN+45nLU81tBaxI5QxGEKHduFShgHxoFxqFocFrFRFGzvLw9ji+VKcK0imsMQhx/s3UtPU0EYxvERjXhD4z3eEPACAgajiKB4F4x3I96NkqjEvIGHhQlxJcsuGhZdkyawMiFNSjG0hUDhq1kNUaKYc2bsKTPj8/sAp6Pjmb+8tD1ZVO1X9B3jwDgwDpHFIYmWyKdKktZ5EfMn/kzEas76H4dEDNWKfvAkDg9UOPfDXo9xYBxKEIdRbI18qpTDmlqlay3mDP56j3gfh0QMFxRFYsCaw5xxsPmwdW29pnFIo1PpadGeKk3ijNJg/sSfSez1PQ6JGCoVLWEcGAfGIbI4zOKA0nMZU+X4D/0zjImuCRy95nccsmzDcowD48A4RBYHVNUqPftQ0P7o8jmlr9HgT5TEZq/j8BX8mu7lGAfGgXGIKg4TOKQ9VcqInhROKQNN+CS6RlDncRzieXRvU/QL48A4MA5RxWEcjZGf2Qu4vc3AZaRF1xCad3obh6FRNG9XFJ2BkO6rcB5Yc73AOFTcPtxfWodvVzAOdqzXMA4zaFN62lEQPaMwNWgwV9rvaxxSs1h/QtFyjEOp4rC7v/R2Mw52rLcDBTGQ0J3D7EJGNKWGDY2IthG0+hmH+CdgLb+k+zeMQ4ni8KE/Ch8YByvWexLjYmAS9fpTJYvlcLrCxzgURlHToOg3jEOJ4vC6PwqvGQcr1nse42V5nEM7PovNRrHOvzjEp2JYf0PR7xiHEsVhd38UdjMOVqy3ETkxkMcRpeMGMmK1rzjmXRwSaXQ3XVf0B0/icE+F0xP2eowD47DMPkyIgSR2KB2VWBSr5XCo1q84jH8ETvLHhnIYsOYwZxxsPmxdW+9ps7Mtg7tKx3rLp0oiadzyKQ65PHComk/2WRnjwDgwDoFqEBd9cXRrnTtbMSuWm0K9P3EY/xLD0Sa+SelvGAfGgXEIchZjYmAI7UrHRiyI5cZx0Zc4zMwDNfV7FP0N48A4MA5BupAux2fgGjEjtkujxYc4TIykgeb6u4r+zvI4vFql6z1kHBiHX3YhKQayaFUaNtk/VRKZwmXn4xCfm44B+7ZwoFRWA1qHb7BX1lyPcQjgcxz2Y14MLKLBs6mSSAHtbsdhKPu9DDV7t/PX0EEYB8aBcQiywezY/ojtvk2VRDLY5WwccnMLaQBVbRuuKgrEODAOjEOQJoyYnaPPVHgnXJgqiXxCpYNxmJiZXPw4hqI1ddUsQziWx+GtNddjHAL4HIc6zIm+QTQrDRcwLA74jPXl2s/BxL+Zy2YnR6aGp5OZGH7YV9ewS1FYjMOKHvK7lRiHX86jYHSMdmi9iBNTJZFZbC3TfuZRKlUXTx27tI4/MRgofxyehD3Mrbkev5U1gM9xOIp45G9W6sRYXFywgI1l28+2un9xpvVYfWVD9eaWrgpFq+7/jQOf5+BvHDqRMTtFL6nwtrgxVRKZQaPj+0nhWB6HPmuuxyfBBfA4DscxLwZG0aL1yIiUuGEWJ9zeTwqHcVjREz5DmnH4qRJfRV881n1dhdblylRJZBhb3N5PColxWMkjxoFx+KkNKdH3Gee1pkpfxBEpnHR7P2lVDGgdvsHeWHM9xiGQr3GoOGqyGJnEMS+nShIfQ5fL+0lhMQ6Mg4U3p03rbcGoGMijWoV2152pksgXNLi8nxQS48A42Hhz2rTeC1gUAxlsUqE1IC/OSKHD5f2kkP6zOPQyDm7cnDatt8No4jOENTqv4c5U6cdc6Y7D+0khWR6HsIf581Jfj3FgHJZcrTKa+GRRp0K749JUSSSPDe7uJ62SAWsOc8bB6ZvTovVuwHTkv3K45NJUSSSBg+7uJ4XmchxeFD397vETFc7Lnp6eV0Vvi/r6+t4U9fb2vi969+7dy6KbRbW1tYpxYByWHEQi8o+KnUJCHBKPVV11dj9Ji71PgrsZcH5HhXFgHJZ0mk2VcrioMVWqcmqqJDKNalf3k/SUPw7KOYxDEE/j0IRhMTCCVo3JlVtTJZE5XHF1P4kU4+DyzWnNeneuQUEMJKHxL+SgW1MlkcFY9zk395NIKcbB5ZvTmvVWI2l2etac1Xg/VMytqZLIPLa5uZ/f2LubniaiKAzAV/ADRAQ/EiIIghRFgWhARBFEQIhB9v6GE3xZkDSsyrKLCQvWpEldkRCSVgiUEkD+mhI/QSm9t53OHOd9fsEhJ2fecto7l8gYhoPm4QxLvR0vsCIOdlBt93soZXZQrbKfRN8wHDQPZ1jqbUPG/29sn2NflJlPtjdq7CfRNwwHzcMZknonRrHidobY4reeLfXJedFmAZ0K+0l0jOGgeThDUm8PUuJiBU9N0dr0bZVEsmhS2E+iYwwHzcMZjnqvt+NQXByg5r/eKomsIzahrp9E3zEcFA9nKOqt6sOi60a+xRRraFrhVkkkhQfa+kn0A8NB8XCGot4xZDzHnUu1zVbpQBTK4r62fhL9wHBQPJxhqPcBkocV+FT9RuNWSSSO3kld/ST6ieGgeDhDUO/bGLLiJGfz3BxqV7lVEkmhWVU/iX5hOCgezuDrfdSKJXGzaHN7dIPOrZLIMgY09ZPoN4aD4uEMvN6ROzjwnC9Ku2qKNoMdUSmO/io9/ST6E8NB73AGXe/1Vix44mbH5iqcRq1bJZFV3FDTT6ITGA56hzPgei/248Bzf2h22myVFsTaYaLc4mJvC11a+kl0EsNB73AGW293PXY9cZRAa5UpWrXDVmkHZZeeF2s5XOjQ0U+ikxgOioczyHqHmoAtcbaNK6Zog+3JdbGVQt/d8mrFvthbxSUN/SQ6jeGgeDgDrLd5FOkNcZZDrMUUrRML/t0V4fdVdFt4qKCfRH9hOCgezsDqnb0PpOLibg0PTfGakPXhjk5rU0iLvU8YDX0/if6B4aB4OAOqt7E2hnRWShBPTn+w2CrFsC62dlFjyu0x8mIvgyfh7ifRvzEc9A5nIPW2vOoHdtelFIsYsHpDR0qspTFlyu0KFsXeJsbC3E+iMzAcFA9nAPW+7YoBC4dSkniy/qrPW6U8hk3ZPUFG7B3iTnj7SXQmhoPi4ax0vSPdwwC2E1KiJat/HCZctkqLuGLKruMCcmLvM26Hs59EBTEc9A5nJesdfNczDGBvMSelyiXbp9y3Su6L/tI9w7LTEq0nfP0kOg/DQfFwVqje8Zs1XcP1ANJrG56UbhsPjYX7yNrnD1qND+qQEnsJXA5VP4mKwnAofTh7GvxT1xFYvW013bVjA88fx3AsmdpMeFIOCfS2mOJN9jpslZbxzPhg0O0dT3u4znCgiItiOBzAV3XB17uXWsomPCmXVbzy/dN6CnXGgs93Dn1BLcOBIi6K4ZBY8lEGnYHV++Vocyu7n895UlZZvJi02yotuxyPnjC/BH5IOo/HDAeKuCiGg6/W0Kmq3vOtp9FsLNzqRVxs7WPG+OID0uJgD1cZDhRtDAdhOBS2hmpjo9llq7SLNuOPYeTF3hJeMRwo2hgODIfC8ohNGRsDWHa5ZW7W/CHwQ9J5DDMcKNoYDsJwKGT+M64ZG1W9iIfjePR3t5FxuxN1hOFAkcZwYDgUtIanHZZbpVWxdoRa45dW5Jz+7msMB4o0hgPDoZANxEYqcCY5g9vmhMAPSW/gJcOBIo3hIAyHs63vocZYqepHTmx9On08OvhD0l4aswwHijKGA8OhgAXrC3huuGyVltFlfDMRczokvYvXDAeKMoYDw+Fsmxgdt17ibIm1FJqNf2awL/ZW8JThQFE2d0qPCUIPwyGMNjD9xNipcnlH9jxiE8Y/bdgWe16yfpzhQBE2d8q9hqHGShtquMdwCKF4Gt3G0juXrdIOqo2P3iPtib1ttDEcKMLmwonhELz5DJqMrS5suT2G/dSHvNjbx3OGA53rY5GMOnPhxHAInJdC32BFbl7z0nhv/FSLI5dwTE63MBy+sncnPU3EYRzHn4IWW1sqilRAEUQoS1kColC2VNDgcveiiSczTfNTI4u4FGk0JBIOJgQPhAROmMYILbIUBXxrSrwZFeahnflP5/m8gmYmeb7kSR5G2DcOD6MqeihxMN0ySktIr+OcrVIaTaQD70iaYQcVEgdh3zg8iKrogcTBbCm0ucmYrdIeXJRdvViK6LeB2xIHYd84BKIqCkgcTDaDyiHSreoCZwonMUh6MJvF+cbEKYmDsG0cwlEVhSUO5pqBt5b0u8XZ3yyhl7KsDAu8E8BqiYOwbRzoUVQ9j0jiYKpVeKuJIYBURLc11FCWXb+MBGuv5Jc4CPvGYSiqniGJg6lW4fUZt9tfQBFlWz42IvolcLlD4iBsGwcKRVUTIomDmVLwVhDHaaywJvAAMTCOpBndqpU4CPvGofxiVC0XyyUOZppAZTWxBJDi7W6yroR3JL2KSxIHYd84UFlULWUkcTDP9DqCx4inFLvqnUcf5Ug6geCAxEHYNw7UHFVJM0kczDM6D0cx8bRghfXdhBLKvm7s8fZKJyUOwsZxoHPqbJYuniOJg3li22ioJ6Z+pHhfXDPAIJIRhhm0SxyEneNAN85G1XD2BkkczLM6hfxTREZulfbQTQwGHUmPIpgncRB2jgNR8/2o+e43E0kcTPN4HSggtmLWH+dJFBID60iaYR5FEgdh7zgQHb9qbh/uXz1OJHEwTyyJtlria8Rzznl0KRmiCAu8vdIViYOwexz21RedM0dRPf0icTDPdApovUdH0IkY5zw6QIYY4B1Jb8KRZ8M4lLScrOhu7K+pCTQW1FUPufNI2D0OlqPesLVoHGLzuOmqIjraVknN8+jf/Njg7ZWG7BWHcG2gK4g/3HT6+warSEgcrEO9YWvJODzeA5wtxMXfKiUQPEPG8PGOpNdQY6M4lPQ1Yd/wx8m3L0be/zIy8u7rk7gXABw1t0hIHKxCvWFrxTh8SKLSddQh7UQsK+fRHSfqdOo7RX8R9rKOpJdwocoucSi85AXGn4x8GdP+NDf7Ng7A6ZMFk8TBItQbttaLQ2wBaHUfebBgm/WxNR8doA+6eehvuvA5wrCC0/aIQ/gS4P32RvunuZdxoLOMhMTBCtQbtlaLw+Y60OujIyvgfKd5esobpgN48OqdLh/hyuSRdAoBW8TB14bxd2Pa/83GAf8pEhIH9ak3bK0Vh83lKQS7rxMDY6vEOo/24KWmy4t/xKGQdyS9i1IbxKGqH5h8rR3s/Tic9SQkDspTbdhaKw5LW0BlTZgywM3aKk3AY0Qc+Bfc+5Joyfk4VPnhndUO5fUrtBWSkDioTq1ha604fN4BKgP3KCNc2GPNXbeBcQjwjqSfozHn43AF45+0QxqbxIUeEhIHxak0bC0Vh8czK0Cwv4QypAFpzsamkwyMwzHMRxhi6Mz1OHh0tOGXJ2joICFxUJsyw9ZacUgvTwHOumu0z7yt0hoCRsbhTBAJ3l5pMLfj0HITTzUdxuJoJyFxUJsiw9ZScdj9sQ1484sog7oxwbs+Ni4O/CPpHyjI6TjkNeh9xHPjKCIhcVCaCsPWSnGYTv9IAmjw3CWGDG+VEgjmGRoHH3Z4eyVnTsehDnFNpxE45RpO4qA2h8Th8EY3thYB9DYWUobVs7ZKq/CToXEo905NRxi24c7hOAw48FTTKw4fCYmDyiQOhw7DchIAQq5i+s38rdIOfEbGgX8kPYHuHI5DBT5qus2igYTEQWUSh4ONfkg9WwQAh7/iLmVFCGnWeXS5wXHwsCIWSSOUw3EI4Y2m3zBOk5A4KEzi8B+J3e9rW/OL2NfrP+GmbOnB4jTnPLqVDI6DG9sRjkX05GwcejCuMbxEgITEQeHH4cDuqFrWUW3W793cXNqNxdIfNmZSe+sLySn81pvfXVZC2eTB+qh+W/AYHQfqxGfeS/Vk8H0uKBWHOnzVGD6hlIRa01AJ6jwOB9RTrcjv9fY2XXJVF3dQ1nWBx214HAJgas3k+1QqDvmY1TiGcY+EUtNQCeo8jn6ncpp6TPu9DaGu1qu32wMFnoqTxXfyyCguJ0s7GR6H+pCTx5XJ99laTuq4gNcaxyRqSSg1DZUgj0MYgR8HcVhhDGssL1BAQqahPA6hg8TBQorxSmOZlX+hIdNQHofQR+JgIbWY1Fi+4DwJmYbyOIQOEgcLqcBbjWVOzuBkGsrjEPpIHCzkJzt3t9pEEMZhfCQ1hNRVC0Eh0mJMGxQriJ+pYoyKZ72QOfljIWFZaCC7JAi5gOQWPPKoZ7066dkiSPsumJ2B53cJ78nDMO/MSEtfyUxDBxAHGBCHiJTGa5PqkwOIAwyIQ0Sqx0H7DiAOMCAOESEOIA6IE3Eoq3+8xAHEAUEgDmX1j5c4gDggCMShrP7xEgcQBwSBOJTVP17iAOKAIBCHsvrHSxxAHBAE4lBW/3h55wDigCAQh/+qVf2FdNMBxAEGxCEi96r/rfTBAcQBBsQhIl3lvpIzvXMAcYABcYjIXRW+kpWOHEAcYEAcInJfma9kqY8OIA4wIA4xGWrtq9hozwHEAQbEISavtfJVZHrvAOIAA+IQkwPlvoIzlpVAHGBEHGLyKElSb7fgygHEAUbEISpjrbxZmumZA4gDLIhDVLoqvNlUYwcQB5gQh7g07UeHdKIdBxAHmBCHuOwqS73NkufRIA4wIw6RGSu3rio9bjuAOMCGOETm9Jam3mA20R0HEAcYEYfY7CWWa4e0UMMBxAFWxCE6B7p5HdaFTt46gDjAijjE56m0SP1NzDO94OMMEAfUjjhsxeBQk7m/VnopPfzqAOIAO+IQo/aJdH5NHmaLnzoeOYA4oH7EYUt6rX1psvzl/yFdbaTkyakDiAMCQBy25lurKSnLp/P1X134vVoUkg7f8KESiAMCQRy2qfO5qSvJpNjk+cXFZf7jvMh05bjRZ0kJQDCIw5Y9GDxvDBOVvXp5NOr0HACEgzjUofelfbu72+8Pujud72wnAQgPcQAAEAcAAHEAABAHAABxwB/27q4nbSiO4/gRN3wsqDMaUQlMZMowGjdFnTifMJt6v7dwbn6RpKSploQ2kCVcG/oWuOLKO17dYNkDc6JtOSIt/88LqIc/5nx7UhRCCGmiOJD+Qn/1RYhFFAfSTygOhFhEcSD9hOJAiEUUB9JPKA6EWERxIP2E4kCIRRQH0k8oDoRYRHEg/YTiQIhFFAfSTygOhFhEcSD9hOJAiEUUB9JPKA6k1x1fBL5OhuJLwXA4uLQUn5w63U+xnjKRmX411lhfsLG4TNSjcZhZ/xKKB8NLY5NT+ydMvNTo6+b1g0vxL9MZH+tHv0YcXBr7Gph5+a8gojiQHuVbnQy/n12bi+EB0mLicPlTcH2evShfIPh5di+JVhH/4PjUiZfiMB8aOvRH0Gpg7ePB1BYTYzU+MuuPoZU0t/0uHHj5/dEy8SM+22mMYP0Ns4PiQLzueH14eS2CX1RZM3W9fldsuLurX5maobZ8z+O7YMDHXsDW5Pvfa1QN7ern+uq6KaMpsh0+8kYcTt/78ZOsXen1xjug66YhoUnaGD9lHboMflj8PUTz55vceIc1WUJT8nx4n3nfvRE3Z2xqMn6K7A5N+ZhVFAfiZb6vIxsRNBlXxVyhmucPUirZ8s2dpqIptj3y+oR101H4MIIGo95YosL/USmUNAmQFuI+t8fhaMQPQDVvCpV746+Wi5oEYOfTBXNs5mAXDbLeuP69IeazuTsDDWsHR8zL2o64OYKigYbNj5NRZg3FgXhVKngeAyBpxXJV4VYo2VzdQEPsfPgb6w5f/FACJPMmq7Rd1q3+HUiPzHc3DvvTNp0+1q/RjxFALtV4G0qhKAPS4Dpz5NW5BKh6ucLbT7GuApEP06wt8QPpqRFzJVsy0PxNstZgigPxpIngeQSAVsoq3B6lUNLQsHsww57d/NAA8F2/VZ5aVNkAkiNbXYxDQIJdy6ydiw8A9Bp/XLYuAeen9gMbTjSnWOBPKegScGi/P+IHIv6Kl5ZGzCvXBhD5uMqeRnEgHjS6nASkq6f23CfuMqXBUJQ9p5l3MUArW1tlTQcGDqJdi8MrqJotBgbZw04+xfC9lLcy+GsV+JBitiztAHLO2hTzNyrw9pLZIX4g4q94PGRtxE21ugRp+Yg9heJAPGdsG4D5xJ5r7S5zbmWLPZfjkRigV7llVRPYHe1eHK64Ldl2O1cgAdTzVrt8oyI9xqz7ugcYBd5g/QfEVph14gci/orrfuAuz63KFyUkV6LscRQH4jGhPUAtVXjnlJwBbA6l2LOIp4G6zWVmZURGoi6Lw0oERo1blzeBZR+zZmIZkG+5LUod2Mh4KA6+IQlalduR14G1AHsMxYF4y+tdQC4rXJCsCWyOnzDhjmYBrWq/VyVge95NcTiZBUrcnrKKhXlmxVgaUo7blpWxGfJMHFILwI39GRiIHLDHUByIh1zONtPARapeAek4Eyw0ANXZOmsy5tbdE4f5XahZ+0OXsbPKnuT7DJgV7oCiQxr3SBz2/ZBrTmZQBGaPWXsUB+IZvpUk1JzCBctqwGGGCRQdknCV584oJmIht8Thwg+j4uxFpp+sw9ECpDJ3KAcsR70Qh+lNaAp3pKBi75K1RXEgXnG6B9QV/gzKKpJhJszWIaQcd66Is6A74nDkd7xxXT1Zh9E05Cp3rKDibdT9cWi0QVe4QxUDc22nTHEgHhEdj8DI8ueh1IHZFBNjZg9yjXfiGhh2QxzmE47b0KzD3Ax7xPQATIV3oNqsg9vj0GhDnTunmFgMsIdRHIg3ZDaAEn8+tyr8o0yE/TkYed6ZMqSl3o/Dmw0YCnfMxNoxa2sqCZ13pqrincvjkBlAnXdEx2KbswPFgXjCWBJylj+nvIZkSEQb0jAV3qkczkI9H4cPHbWBKwZmWTuBJO54p2rfseLqOEwkWgrp/IR2wR5EcSDuFx1q87RBqDtIYdapzJyANjTcIBbo8TiMQ63wTlTUtnv3ZRp3vHMFSK9cHIfoYUt+xZ/QKA7E9VJtHvCKdg2Md7pUf7MNIhSxk+rpOHyVkOWdySJyyh4ykYDJRchh4Jt74/AJcp63EHtCozgQ12v3OW/xysAK64RvAZrCxdBw2MtxSM3hmneqBP8xe8AgDEFj1LHg2jisnyHLBaioOGAPoDgQl5tehJbn3XELhFkHPkJWuCB5GSs9HIdZIff2Bj6z/w1DzXMxFBnDLo3D1g5uuBAFRKbZ/ygOxN0mk9AV3i1lSCHmWBhqhQuTRWy1Z+MQF7N/V6SzALsvEEGBi1JAMuPOOHyGxgUpIXHC/kNxIK4WP0ORd1EOyVPm0GgMt1ygIjaiPRqHiTTKgratDXaPLyH0La9j25VxCJxJFS6KgffsPooDcbW4hBveVUXMzTNH3iQEd0yREe7ROCzDFPYag+xfn2AInuKSG+OwgRIXpipJAXYPxeEvGof7xCVc8y4zMcgceQ+Di1XA4lZPxmFUEnZXe4sdH2uViaHGRWr+BPfFYeze4yvxJzRGu+EfNA7XiZ/ZaIPQB8EOTJ+hKj5UQz0Zh0GBd7UGwqzVIO64WAaG3ReHBMrPfH6i3fAvGofbvI7gmndfFpFVZlt0DyUuWhWxox6MwxRUReDxKH3C/vrScm1xB7Bjt8VhSfQx9BZ+H/sX7YZ/0DhcJpBEib+EInajzK4wDC6ejqEejMO20Ghr/xwddpHjopkYd1scErjlLYSf0JpoN/yDxuEuGfv/QUHkZ+NtmhhAgYtXxeZxz8VhWuzNfQEJ9sckZIWLVsPmibvi8AoyF6xw/9EL7YZ/0ThcZSuBK/5CCthM2X4abfLnYGK45+LwFjdcJBlf7h0cRNMQdFccfrB3dz1pZHEcx/9Cq0WdotZqfCwoggWNplrq80O1jV33pld70012705CfpFkyGQUEphAmnBNhrfAFVfe+eoWd7d1qzzMOc4sM/R8XgBOTtrznXPOwBw5MAzGvVMHORvekcPhKZMwNNYtF4gRl+MITOaEPHbcFocPiqIxO2XuJtkzqBqzXwXbnorDIHTNgUHYoR/I2fA7ORxeEoCeY11jKh/3iEcMN8wZKp67LA4Bu7f7tK/K+fdbggxzgopxL8UhgSKzn4o1klqScfCIaQVp1kVFbBKH8xBM5owSDt0Vh/AU6sxeN98OjH/lWJRwKWHTQ3EIz6HG7HeFDZJaknHwht/eIMO6Kce3dEjghjmkhn13xWEUBrNZ+tuR9ACumSNyiLz1ThymOYaYbxBGSGpBxsEbwusosO4q8pw6vF2ByZyi4rmr4rDhQLdVnFKDrw815owqot6JA8cQc7lAkKRWZBw8IQBVY91lYmWErFpGlTmmiGU3xcH3BjlmtxIS1DCNLHNIBhueiQPHEPOpIElSCzIOnrD2EXXWbRdYJqu2nDwgyWNudnZ2yw1xOBoZGXFky6OOOMcds4gc3vi8EIfbIR5yqpGaosyQ1JyMgyfM4oJ1XR5xsugJDOYcTcffyt2Pwz8umf107BGdrCDHnGLgzAtxaDrEcl/Jc2QcHBJUUGRdZ+HpR57nL8Xl6rdqrNtxyBn6LSPH7HeD2PR0AFnmmCvE3B8HjiEWUsYkSc3JOHjDUKTrB9KMlRAjS45DisZcp3Mc3LA++yaPW05GtoZ+98fBaTmshElqRsbBK9beoKoxflotX768KpWuLjOVtMkexURfmKw4cEHJvB4HViw0FJ2MrI7jnz4OzJDfg2tBxsEzXk+Bd21dyxRU/EDJXlc0JszAGFmxjTx7LM3MlzOXjaaVG1HTvBQHrXZ75Y0LT2vMEbl6JZO5agxMTXvkfvuQZ+NgphtjbMMYsCKGSWpGxsE7JnagmsyydFFHQ2R1cikwfHAwvJvYTPYraMhWxHepD8mCPejsUczMzb2qGYVM3Qtx0CrXBu6o13lmL/PyQsed7JX5mAFJeDEOWr6YVXDHKKWZuDx+IakZGQcPGUlCrzNLtLIBIB6L7tEPTsaf+SOAfim+S23BLq6ZOPPKQMNK3L90GBgOJA43kvEQGvTrtMvjkL9QAER2JmOJ3UBic7YPgHqpMbtoGQMN+7MbhwO7A7GFv8elKjwqaax7Lw7/jHEofrSUCNyOwU7kcYOcQx9Jzcg4eIlvAUqeWVBWga3Aa2rqZHEdUPNMhI7fqLNVpJmoegHA/lLwx4sPv47G4gDUjObeOFQMIHT07HmYvhtcjgNqxaY0FBVgbmlogr57P7q0AlzkBD8QoRfeioOWUYFQ8mDthL7zrQX6AbXMBKl4TVITMg7eErPycH/dANaHwtTap1WgxAQUEKSOJqAzQbkCEFkao6Y+DMcBvezSONQNoP9ghO57ug0UmQ0udSiTT+m+t8sr0PNMiIFTT8WhrAI7z97RA09ngarGhBQQJakJGQePWe48q5eA+DR1cBBCgfErY4M6mkdBdP5T8GZ3pt3ckgQM04Vx0EpAf7TFeETuJi5hNQNY2KNmjicBsWTeIOqhOJhVYPuMmovOQTUFD9IGSGpCxsFrFkPtN/RzWXwc8FFH430iU7hp5dDBjwoToVWhbM5Qe9P9+Fp2XRxyBkK7LUf9dOrRdago6F+jVnYF63CFgHfiUPmK/TYtm5iFXhM7kfaT1IyMg9ecreBCY63UVWyNkxXP+3DFuOmYoQ58EWhMgKli/xN1dLIEXLksDnUd8cH2L/++YY9RAmIn1NozCB3zVLDgmTgUgc0RasPnh5pj/ExskdRE78fhXfDzzpdXqa549WXnc/Ad2ex0H1mNNZdXcGT1D459FJhQqhjt+LkwBCfY5DFZEQyh5Ko41HX431I7r1dQZuKKCAWd+NXeGnY8EgetgJVFas93hCwTAMVH0kO9Hofnn1+luuzV5+dkrw/9rfbdy0AsTFYNC8ziJQxTBwGUxCbYBR9ZMx1C2UVxqOlYog4WoWtMVAmRp9ReOCmyNtEQ8Ugcqpg7pU7ebQmtKQ35uFILvRyHkc2UK2yOkK1mtqHW2EMZYJmsC8eREdmI6GBdZIcjp2KJLFuEUnNNHDRLl76AayaojMgn6mRiBXXGTcW5J+JwgykrE/i4opiM2wWekNRMD8dh/GXKJV6Ok63e+6Gnm0wiyjzxOIMqshHR3onIj+5pBvxhsu4QhmviUEXSwqX/GoHJhNQULFpaB2YZtyzGvRCHDFYGyYqYyMcXMU9SEz0ch7M/Uq7xxxnZKrwEpfLgpl4JEp9tlPm/NxWmtsZEJqlrrL4nDi/6kXFJHMqYmiELEqJLhyxiZMHJPuoCN82jHoiDqShPyJKRN6gJPbMlPdTDcVjr+mnDf71aI3sF7r//JK3ggDhF+SdyFb9RW8soMl55RPaId9GjuSIOmo4hsmIipOTENpW2rHVzGAWBKAc9EIfbPFoUQEFghJdIaqZX4zDzJeUqX2bIXvM/vv/H1BEgLmKv5q3iE7U1iYrArv0B8S96XBGHK/jJAvE3fqqYJktmIvz7eSUsuz8OFUt5FB+EvHzfT3M9Gwd/ymX8ZLPpCAr/3bTfIH6byAjca7Y1hxz/lvI28RpC1g1x0HSckjVPkBVaOKySRZP8vcwg4f44GAiSZQv8Ca5jnaRmejQOZynXOSObrfXdffH2AtsviN8Qqtx3yrvUzjlUgQn2qciix3RBHMo4snzFfTAZNwNRsiiKKv9N+Ybr45BHf5gsG+VPsIk4SU30ahz+TLnOn2S311vf3v9ziblzEjADnXs2jFE7o/wzVAZJsUWPC+JQRZTjissiL9/zkUVv+Z8TS8Pv+jjcYJnvpoF3EDTMkdREj8ZhMOVCg2S343/f/1NTlKckJI6avRu0uygxTgZGiV8Uhe7HQUPkPVm1KHBYeslzWLqONHcckm6Pg6YoE8SB/8xLwwpJD/VqHBIpF0qQ7d4moaeZZkD0szdQ4d2gnbX5/2YdU2Hi9wFq9+NQ4TnL/BWq0M+VWDaAK/7tdrfHIY1Z4jGPa8YJCklN9GgcXLirxLGvxPn+n0oRqz4SM4ySvRu0/TAZnyICJKIPWtfjUOTa8pjiP6vXlXdk2Sj39dew6vY4lDj/eQzC4B5kvCepiZ6MQ9hV33H45lWYHHAIIDRIgoZQ4F2D71MbLxSFcVJxSiK2Uet6HLJYI+v8yDM+tfsptvlhABM7bo9DFWfEIxyBxh2HEZIe6s047KVcaY+ccKBgl0SdIsu9QWvvfZuJfRKygErX46BjhqwbwKWzj+BzH8aa6Hd7HFRM8N401Ln/xAxJP4vxlCuNkyOmB3zES3wfHIq9x8RlbJKQGMpdiYP4UeYirgW+h8BhnXdezGHL5XHQECE+S6hwx+GYpJ/FWOqe34Oj/7vg76l7xsh1TqDYukG7y30meo15EpJApitxEH9CfgxV7g33Z44+XqBh3+Vx4P8SwjCuBBYn0s/iQRzOqQvOPRAHioB/g9bO6YkZGCchu7jsdhxq2Hb2AasigsRhABnuR/xdHgfOIW5YxI2Mg2Q5Di+pK156IA7c29Qq3lFrs9wbvopyQhw47hCdj0MaSeLg416m3SBKHOZRZN/0SBzqSBKfNVTZHRkHScZB0Bx/HI7tfFozhy3ycBz8zpa4gGniEMVNr8XhL/burLWJKIzDuAuuOCoiiFsQt1jFVrTGrRVba11bpWpp7VVd4ED8YyGhpE0hDSlCrkv6FXrVK7+gEcGtqDl0DvN25nk+wFwc5s0vy8kZzyVu16U6OBA4+OT/au4/Sf47Wdd0Ijs43NRCUBwe6RM4HFcJHAgcrOHQ5/2ubVnXsoPDZa0GxeGwquCwTRE4EDhYw2GH9/e9ZV3KDg4ntBYUhy7VwWHLWdnAwcq/vggcLODgv5N/Tnuyg8M9zQTF4QE4fP9lBxwIHIzh4H1Uk5vXvuzgsD0wDk9VAoctJ8GBwMEcDnmVnV9LupsdHI6oFhSHAXBo1w8OBA7mcDitmvOroRw4xIXDcXD4fkuDA4GDMRxOaA0cwAEcwMFs4JDQJF1UCxzAARzAwWzgkNAkbdUsOIADOICD2cAhoUmK5MABHMABHMwGDslM0g1VwAEcwAEc7BYLDoe6d/+o+xA4dDBJfaqDAziAAzjYLQYcBqaLvzU9sClxGDz+rGvv/qHDf+1knJM0pCo4gAM4gIPdYsBhuvhH05sHh8G9x3J7ep/c2nk10n+Lc5IeawUcwAEcwMFuG8ehp7iunk2Aw2BPLl/o188qpVK9Xv1XX1x8k3RMi+AADuAADnbbOA4Hius6YByHvgO9tyN9K6ovNuaaM6sLs66DYsThjL6AAziAAzjYbeM4dBfX1W0Yh4Pne4+qXVRtlGc8RiNmHHJqgAM4gAM42C1bOAzkCsOSSovNVedRABwuaAkcwAEcwMFuGcLh/vl7kRStlFvOo0A43NE8OIADOICD3TKDQ1/+qhQtLs86j8LhsEtlcAAHcAAHu2UEh57tkVRtesgQGIdL4AAO4AAOlssEDocK0udGy3kUGoe8muAADuAADnbLAA5d26XK3KzzKDwO58ABHMABHCyXehwO5of9aQiPQ6+WwQEcwAEc7JZ2HM73K1rypiE8DtfAARzAARwsl24cbpyWVlqu08ABHMABHCgDODzuV6XpNlA4HE6rBg7gAA7gYLc043BhWCteNz84gAM4gAOlHYdt16R5F0NBcDgCDuAADuBgudTicL2gSs15xicHcAAHcKBU43Dwskot5xk4gAM4gAOlGofBK6ovON/AARzAARwozThsKxiwga2s4AAO4JB0Dz+8fTs1NfXy5fN2o6OjIyMjL9q9fj02NjYxMfGq3fj45OTkREZwOKdS8jaAAziAAzgkvRzvO7zaq2zgcFeVVZd8HJ8BDuAADp69G493Od6Bwy8NnVLNGYiD98ABHMDBF4eP4BAMh+s7teQsxJHd4AAO4JAwDm86vNp4FnDIq+pMxMN+wOEre3fb0lQYx3H8tMrKOlERRfeuTOzWMjNLNzWrRekU729IwRu4YPxI2DisKczhCPZ4bG/BF+AzX10FEqGx9j9cZ5fn6vd93qEnv/OR6XWNOBAHYfPEITAcLrtuRR2Jai3pDL4RB+JAHIhD0DgkiMPvniCnjka1lnQOOeJAHIgDcThYwhAOc/bjcA9pTx2Nai0pjiJxIA7EgTgQh0bhEOlBWfnP28mXMpnc3ytrxOE2tokDcSAOLGgcovU+znocbqPg14V8cSOLmnn6ltSGPeJAHIgDO1hUMw4OcdivCXlfMpSq+NWtZ1fvPzrTe+5vdepc0kVsEQfiQBzYoUzhELUch7Mo+KGhmAVaj5/reNWwJV1ClTgQB+LAAsdhLkAcmuPPa/UpdahPNf9BvDk4HAZQUuIyWWCg7W1Dl3QeG8SBOBAHdqg5Qzgk5Dj0p7TXHxQOw+53TwnzqsDV5kYv6T3SxIE4EAcWYhyepgLoaUA49Mp/zVtJI/ax8Ut6iSxxIA7EgQWOQ70X+c2LcfiSCqAvAeHwButyG7pvmFhSC4gDcSAO7FDTocHhTiqA7gSDQx+ySpZXwPEhI0uKwSMOxIE4sPDikAqkYHBox66StYcnQ2aW9BAV4kAciAM72KQAB53PW7EahwHkpXt6PGNoSd1YJw7EgTgw4tAAHCKt8JSoAuKmliT/ntAiThMH4kAcbM8UDqs243BJegIuj2sRU0t6hIwYh3biQByIg+3pxmGWODhOO4rSF0rc2JLk17Lm0EsciANxsL1ZQzgs2YzDXZRle3fdQWNLkt+8l8Ep4kAciIPtEYcAcOhBRUnK46a5JckvVyqhizgQB+Jge7pxGK/zcYsW4yA+dFzEGXNLGkZaScc/QByIA3GwvXHioB2HdygoUVVcNLekqPiIdAUPiQNxIA62ZwqHNYtxaMOWElVAn7ElyT8EUx5ao8SBOBAHy9ONw1S9OFh8fUav9BXouhGDS5KfgkvjgeOrXuJAHIhDWJoyhMOyxRfv3UdJOPdOY0va/+/K2kKb46tTyBAH4kAcwlF4cAjPld3HkRfOPWZwSfJTGeobHjm+6keJOBAH4hCOxgQ46HzessVf9vMEO0rSJppMLum6dPxqHW8cX3WhTByIA3EIR6ZwWLD4a0KvYTNMOPQhrYRlfU6zG+vEgTgQh3AUJhz+0dManxrVSD8Oj+EFikMMns4lRVvgKVlbPu9l7cEmcSAOxCEc6cZhpM7HTdiLQ9SFChSHTr04OA+xo2SV8drx0QU3q4gDcSAO4WiEOOjG4SWyweLQAqV1SS9QUrK8LJodeSdQJQ7EgTiEJOIgwkE+d/04DMHVi0M7tpWwIu478k6hSByIA3EISbpxSNb5uFF7cRgMGIcHKOjF4SSqSlgFLTOOuCasEwfiQBxCUpI46MZhWI5Dj+zDma96cbiBrJK2iy4fd06lFXEgDsQhJBEH7TjMyOcecwTFsS3HQX7FeO02XbdDfsqhSByIA3EIS6ZwSNqLw2f53B/LXldlzTi8QElJy6FpSIhmi7tJHIgDcQhLo5pxWJ4aGxsb+VkymRwdHZ2YmFhYWFheXltbXFxaWl1dWVmZn08kIlHHXhwGkVWyXEjes7E6hiRb0mlsK3Eb0t9JX8Wu+iPiQByIw5HuNw5zc9PT05OTk7Ozs+Pj41NT+y/55P5LfsnRm8U4vIKrBEmv7O5AWmnG4TIKSlzlO+KOoLPIesSBOBCH0JT49YN8NOoYzx4cIoCS9VXyPulHUTcOkVZ4Slwe7lnB31h1oqSIA3EgDuz/xUF+SC2H3vqP2B3Djm4cnAHklbwMPtxz6uxKE/YUcSAOP9i7l94kwiiM46f1Vi8jXhqJ1ZpCC716SWtLpV5atcbb3pULdycxT0oyZDIFEiAQE9aE+QqsWHXnp9NWtBawLcM7UuX5f4LJm3B+nISXIQ5skHEYgqNdlceKHLcZeGochxmU1NfotmbkWG2uIusQB+JAHNhA4zDX9Xs3rYllOV6JcaTM4zCKovopDYSvyNGNDe3aQByIA3FgA43D7a7nt4c7cryW4Kl5HCKLyKmf8i5Wx44EbRooOEociANxYIONQxSVbmcsknKsJuHmjOPQfGRf5bLA28tySM9HhmClVYkDcSAObMBxmMd29+N78liHNOFriNuIxn5vrQM6W+qzigusn45I52bPDQFeTYkDcfgHcDj2rS92aMTB4J2yKp7ckiN7vYCy+qiIlh5LS4lXlqM+c8ouMB67mmjbGc6cTwLw8qrEgTgQB0YcrsLTbvOwPixHdGcCO+qnWvVANmaltduoqu+cdBGANbd0PnT62ssLl0ffxEfOhedeAXBLDVXiQByIAyMOIpuwtdscG9GIHFYiDGTURMUOOIygoL1U2/ZctGRlyylVJQ7EgTgw4rCXnwvHdRcrtw5bG4bgVjUwHDYsy9Eeq1e3d7a8bDGb9Qql7WpNv0cciANxYMThZ4+Q8jFabYxPSuci8STg5TQ4HGQdVT15EQfiQBwGvv8Jh2mktfucLSAZfyFtfVhbBez9GZXL7+aYxSEET09exIE4EIeB73/CIYSC+qlqA4sPJzdlvxtj80kAxUrbj49KZnFYXkBNT1zEgTgQh4Hvf8JhFq76q5IFgIW7px7GpmMPTyUXAcDdSR2cDlPh8Ao8szhIDGUNMM/eK0UciANxYAOLgzxBXX1WSxds7GdvZVJtn70VkccoGsZhFLYGVwM/yhAH4kAc2ODisIS09pBTz1crlUo1X3c6Dsx5kedwDeMgSVQ1sDKYTiQS54gDcSAObJBxmISngbWFuIgswjGMwySKGlhZnBGRS8SBOBAHNsg4JCzL0aByrQ0ReYCGYRyGnyClAeVg6jpxIA7EgfUFh1A7DqE+4SArqGhApfBIvhdDxTAOcim4fSeNqBAH4kAcWF9wuN+Ow/1+4RBCVgOqhLXmv/uZxmF5KLDVoYgx4kAciAPrDw7yqdWGT9IvHBJTqGkw2Xi5d17ImsIh+NWhhqFh4kAciAPrEw4bn1ps2OgbDrKEjAZSHnOy24sJOIZwCH51KOGZEAfiQBxYn3AQuXZv5Ff3ron0D4f7sB0NogJmWl5Gag4HGUFRA8ixrE3iQByIAzONg/mCx0EeIa0B5FgTt2Sv8ygbx2F4LpCnziAqxIE4EAdGHL4XD2Z1KCPacqPZJA5yGq75p3ZcjBIH4kAcGHHYLRLIl3Dni3VBmq2ibhwHCaOgpishLMSBOBAHRhz2uthcHcwvDs3mUTaPw8Yiqmq2mjUxSxyIA3FgxKHZA5TU+JzdXxzkAlzHOA4SgptTo3mYFuJAHIgDIw7NXlpoqNk8xFquYRvHQcLIqskqGE8QB+JAHBhx+NU0ihrInG02BjsAHK6soqzmyrm4KMSBOBAHRhx+9XwVGTU7Z+Pye3eRNo+DjE6gYnLZiQpxIA7EgRGH37pmIa/myiIsBzoD1zGPg4RgpdRQZdy8RRyIA3FgxOFAa3BraqodnF2Wg51CIQAc5BzcuhqpiolRIQ7EgTgw4tA6vYuOmimNhQvS0o1FVALAQZYM6dCwcEeIA3EgDow4tLQ8B0+NVIEVl7bisBoB4BCJGtGh7mJaiANxIA6MOLT1/ia21EBV4I50aBp2zTwOEgnDzWuP1WwsCXEgDsSBEYcOzY7Dc7TX0sDTP01xu2YeB4nEgErPe8OpYeJAHIgDM4VDs3fSh959No2DzN5ENqe9VYL1VDr3Yh1uyjwOImvA115US7kIXxfiQByIw7/aSTmONhw+hq7+9UIfzeMgH87CbmgPOVuYuih/ajgKZALAQeILKNbVb2kLsYgQB+JAHP7ZTspxjH4+kY1K711ZB7bVd3kb44c+xtorZBvmcZDHSVgZn54VYJ0XIQ7E4Rv7dtObRBSFcfwo6ggygm8hFi2FCorYkNhqsa20ihpa3XTfhd01mTwpCYRQWMAENqxJ+QpduerOT2c1uqICx0zjZfr8trM5OYv7T+7MMA6zy5R1bDhG2hAPJIM2Wif/eMx2ga13Mla+AHROPI+DlDZtuJUDvYqLl3eEcWAcGIdZZso6kgnHQImkeGK7ALtbP9DrV7FQlElK4RdAq19XxmGy+8+B4Ym+Z1j6KIwD48A4zDRj1rHvGGhfPPJ+8xMaR9o8tF3gdUim8M56DKDVbNc9jYNcLV4BOt+UPXsSviqMA+PAOMw2Y9aRcwyUE89kA0Cjd6w5ZV2gcEumdG8x8ARnqq1Ot9c8qv1dFVmZXjT3AmgNpu3aoAq83pDzhTGsqRxOjoNbUzlVx+G0puJq49CoqTTx2OuFeL9ifRyaNZUG4zDKv+sIOQYKiYfyAQDDKS9/TrpVoHDznii8n7O2XmIKH0Vjdf0K0OhWDiaqN6vA2h35m2dQC8tY21CLiUYKatdEIQq1h54vxPsVK92AWlx+8utpaAZz1mHgvdK+1wFMvwDsYe14whlb6bkAljJJ0Yt/mJsvhoPWGPOiVFp8BKDxvT9u8PqgYwNrmbGZsZTW4zJWsmgpBXXBzwYtpWdXRWPR0rru9UK8XrEVEqVtSysidC5/xqHsGKcsXnu1uPMJQKNz1D7/lvV40BzaAB7mbotJNtaXcKZ6/uD1ytGhDSyk8kJE/mBOHCTgGCYgFyGaWSngJ9s9PO3V+oN2u1JpD/r95umha/968Ma6K+b5Mp96/Hvw4Z/B2+1+rdf5NfbC1nxciMgvDIpDfM8xyl5cLsrnjLXz0MYo+0YsOBcVY2Uzua23o4MvvNm8tSpE5CMGxUHyRv3rkMjLxSply5FwLr0cC+wEYsvpp+FIOfRKZsC9s8GfWenlVGwnkEpvFudCJSEinzEpDlL+6hjja1mIiC4to+Ig9x84hnhwX4iILi+z4iDRFccIKwbf+xMRjfJ5HERu7/73Nw+JXbM+IyUimsj3cRBZjeyu7f2nQiT21nYj/O6GiC49A+NARERKjAMREY1gHIiIaATjQEREIxgH+sFeHQgAAAAACPK3HmCFkghg5ADAyAGAkQMAIwcARg4AjBwAGDkAMHIAYOQAwMgBgJEDACMHAEYOAIwcABg5ADByAGDkAMDIAQAAYt+OaQAAYBiG8Wc97Q6DyiaRKwAAAAAAAAAAAAAwzfUFgDgAIA4AiAMA4gDAEwcAQhwACHEAIMQBgBAHAEIcAAhxACDEAYAQBwBCHAAIcQAgxAGAEAcAQhwACHEAIMQBgBAHAEIcAAhxACDEAYAQBwBCHAAIcQAgxAGAEAcAQhwACHEA4NirYyIAYAAEYnVX/456jBxzt0TCDzCcQ5EDIKxhkQMgrGGRAyCsYZEDIKxhkQMgrGGRAyCsYZEDIKxhkQOA4RwAGM4BgP9ujHUAAAAAAAAAAAAAAAAAAAAAAAAAAAAAAAAAAAAAAAAAAAAAAAAAAAAAAAAA4LUHBwIAAAAAgvytB7kCAAAAAAAAAAA4CFnulDGlNuzAAAAAAElFTkSuQmCC;" vertex="1" parent="1">
          <mxGeometry x="466" y="447.07" width="94" height="51.93" as="geometry" />
        </mxCell>
        <mxCell id="HauU1o4Qbi5hm5UDvGz6-23" value="" style="endArrow=none;html=1;rounded=0;labelPosition=center;verticalLabelPosition=bottom;align=center;verticalAlign=top;entryX=0.497;entryY=1;entryDx=0;entryDy=0;entryPerimeter=0;" edge="1" parent="1" target="HauU1o4Qbi5hm5UDvGz6-2">
          <mxGeometry width="50" height="50" relative="1" as="geometry">
            <mxPoint x="327.58" y="385.34000000000003" as="sourcePoint" />
            <mxPoint x="327.58" y="340" as="targetPoint" />
          </mxGeometry>
        </mxCell>
        <mxCell id="HauU1o4Qbi5hm5UDvGz6-24" value="&lt;font style=&quot;font-size: 16px;&quot;&gt;(mTLS)(ldaps) 636/tcp&lt;/font&gt;" style="edgeLabel;html=1;align=center;verticalAlign=middle;resizable=0;points=[];rotation=-90;" vertex="1" connectable="0" parent="HauU1o4Qbi5hm5UDvGz6-23">
          <mxGeometry x="0.475" relative="1" as="geometry">
            <mxPoint x="-12" y="68" as="offset" />
          </mxGeometry>
        </mxCell>
        <mxCell id="HauU1o4Qbi5hm5UDvGz6-21" value="" style="endArrow=none;html=1;rounded=0;labelPosition=center;verticalLabelPosition=bottom;align=center;verticalAlign=top;exitX=0.488;exitY=-0.001;exitDx=0;exitDy=0;exitPerimeter=0;" edge="1" parent="1" source="HauU1o4Qbi5hm5UDvGz6-2">
          <mxGeometry width="50" height="50" relative="1" as="geometry">
            <mxPoint x="325.65999999999997" y="209" as="sourcePoint" />
            <mxPoint x="325.65999999999997" y="169" as="targetPoint" />
          </mxGeometry>
        </mxCell>
        <mxCell id="HauU1o4Qbi5hm5UDvGz6-22" value="&lt;font style=&quot;font-size: 16px;&quot;&gt;(ldap) 389/tcp&lt;/font&gt;" style="edgeLabel;html=1;align=center;verticalAlign=middle;resizable=0;points=[];rotation=-90;" vertex="1" connectable="0" parent="HauU1o4Qbi5hm5UDvGz6-21">
          <mxGeometry x="0.475" relative="1" as="geometry">
            <mxPoint x="-15" y="-16" as="offset" />
          </mxGeometry>
        </mxCell>
        <mxCell id="HauU1o4Qbi5hm5UDvGz6-28" value="" style="endArrow=classic;html=1;rounded=0;dashed=1;exitX=0.26;exitY=1.024;exitDx=0;exitDy=0;exitPerimeter=0;" edge="1" parent="1" source="-ltacMk_oOF2rvO0Wb88-9">
          <mxGeometry width="50" height="50" relative="1" as="geometry">
            <mxPoint x="466" y="109" as="sourcePoint" />
            <mxPoint x="326" y="169" as="targetPoint" />
          </mxGeometry>
        </mxCell>
        <mxCell id="HauU1o4Qbi5hm5UDvGz6-29" value="" style="endArrow=classic;html=1;rounded=0;dashed=1;exitX=0.528;exitY=0.004;exitDx=0;exitDy=0;exitPerimeter=0;" edge="1" parent="1" source="HauU1o4Qbi5hm5UDvGz6-13">
          <mxGeometry width="50" height="50" relative="1" as="geometry">
            <mxPoint x="527" y="346" as="sourcePoint" />
            <mxPoint x="328" y="386" as="targetPoint" />
          </mxGeometry>
        </mxCell>
        <mxCell id="HauU1o4Qbi5hm5UDvGz6-6" value="" style="endArrow=none;html=1;rounded=0;labelPosition=center;verticalLabelPosition=bottom;align=center;verticalAlign=top;entryX=0.002;entryY=0.225;entryDx=0;entryDy=0;entryPerimeter=0;" edge="1" parent="1" target="-ltacMk_oOF2rvO0Wb88-9">
          <mxGeometry width="50" height="50" relative="1" as="geometry">
            <mxPoint x="321" y="48" as="sourcePoint" />
            <mxPoint x="390" y="48" as="targetPoint" />
          </mxGeometry>
        </mxCell>
        <mxCell id="HauU1o4Qbi5hm5UDvGz6-7" value="&lt;font style=&quot;font-size: 16px;&quot;&gt;(kerberos5) 750/tcp&lt;/font&gt;" style="edgeLabel;html=1;align=center;verticalAlign=middle;resizable=0;points=[];" vertex="1" connectable="0" parent="HauU1o4Qbi5hm5UDvGz6-6">
          <mxGeometry x="0.475" relative="1" as="geometry">
            <mxPoint x="-54" y="-13" as="offset" />
          </mxGeometry>
        </mxCell>
        <mxCell id="HauU1o4Qbi5hm5UDvGz6-9" value="" style="endArrow=none;html=1;rounded=0;labelPosition=center;verticalLabelPosition=bottom;align=center;verticalAlign=top;entryX=0.003;entryY=0.6;entryDx=0;entryDy=0;entryPerimeter=0;" edge="1" parent="1" target="-ltacMk_oOF2rvO0Wb88-9">
          <mxGeometry width="50" height="50" relative="1" as="geometry">
            <mxPoint x="321" y="78" as="sourcePoint" />
            <mxPoint x="390" y="78" as="targetPoint" />
          </mxGeometry>
        </mxCell>
        <mxCell id="HauU1o4Qbi5hm5UDvGz6-10" value="&lt;font style=&quot;font-size: 16px;&quot;&gt;(kerberos5) 750/udp&lt;/font&gt;" style="edgeLabel;html=1;align=center;verticalAlign=middle;resizable=0;points=[];" vertex="1" connectable="0" parent="HauU1o4Qbi5hm5UDvGz6-9">
          <mxGeometry x="0.475" relative="1" as="geometry">
            <mxPoint x="-54" y="-13" as="offset" />
          </mxGeometry>
        </mxCell>
        <mxCell id="HauU1o4Qbi5hm5UDvGz6-38" value="" style="endArrow=classic;startArrow=classic;html=1;rounded=0;exitX=0.001;exitY=0.085;exitDx=0;exitDy=0;exitPerimeter=0;fillColor=#dae8fc;strokeColor=#6c8ebf;" edge="1" parent="1" source="OHNksXauE9havSNf5izH-1">
          <mxGeometry width="50" height="50" relative="1" as="geometry">
            <mxPoint x="170.2299999999999" y="57.30000000000001" as="sourcePoint" />
            <mxPoint x="322" y="48" as="targetPoint" />
          </mxGeometry>
        </mxCell>
        <mxCell id="HauU1o4Qbi5hm5UDvGz6-39" value="" style="endArrow=classic;startArrow=classic;html=1;rounded=0;exitX=0.003;exitY=0.129;exitDx=0;exitDy=0;exitPerimeter=0;fillColor=#dae8fc;strokeColor=#6c8ebf;" edge="1" parent="1" source="OHNksXauE9havSNf5izH-1">
          <mxGeometry width="50" height="50" relative="1" as="geometry">
            <mxPoint x="55" y="108" as="sourcePoint" />
            <mxPoint x="321" y="78" as="targetPoint" />
          </mxGeometry>
        </mxCell>
        <mxCell id="HauU1o4Qbi5hm5UDvGz6-40" value="" style="endArrow=classic;startArrow=classic;html=1;rounded=0;exitX=-0.001;exitY=0.258;exitDx=0;exitDy=0;exitPerimeter=0;fillColor=#e1d5e7;strokeColor=#9673a6;" edge="1" parent="1" source="OHNksXauE9havSNf5izH-1">
          <mxGeometry width="50" height="50" relative="1" as="geometry">
            <mxPoint x="100" y="116" as="sourcePoint" />
            <mxPoint x="220" y="519.952380952381" as="targetPoint" />
          </mxGeometry>
        </mxCell>
      </root>
    </mxGraphModel>
  </diagram>
</mxfile>
